<mxfile host="app.diagrams.net" modified="2023-11-23T15:49:33.378Z" agent="Mozilla/5.0 (Windows NT 10.0; Win64; x64) AppleWebKit/537.36 (KHTML, like Gecko) Chrome/119.0.0.0 Safari/537.36" etag="4DRtopHK5665-sMUern2" version="22.1.3" type="github">
  <diagram name="페이지-1" id="Q9GPWtl4dz6Prq9a7Tfs">
    <mxGraphModel dx="852" dy="2011" grid="1" gridSize="10" guides="1" tooltips="1" connect="1" arrows="1" fold="1" page="1" pageScale="1" pageWidth="827" pageHeight="1169" math="0" shadow="0">
      <root>
        <mxCell id="0" />
        <mxCell id="1" parent="0" />
        <mxCell id="AGyuReAx4IVv6xOUwFAU-2" value="과목" style="whiteSpace=wrap;html=1;align=center;fillColor=#f5f5f5;fontColor=#333333;strokeColor=#666666;" parent="1" vertex="1">
          <mxGeometry x="181" y="270" width="100" height="40" as="geometry" />
        </mxCell>
        <mxCell id="AGyuReAx4IVv6xOUwFAU-4" value="학생" style="whiteSpace=wrap;html=1;align=center;fillColor=#f5f5f5;fontColor=#333333;strokeColor=#666666;" parent="1" vertex="1">
          <mxGeometry x="681" y="270" width="100" height="40" as="geometry" />
        </mxCell>
        <mxCell id="ryIB05gUjZDWtRrVTaDK-16" value="" style="endArrow=none;html=1;rounded=0;" parent="1" source="AGyuReAx4IVv6xOUwFAU-3" edge="1">
          <mxGeometry relative="1" as="geometry">
            <mxPoint x="401" y="289.5" as="sourcePoint" />
            <mxPoint x="561" y="289.5" as="targetPoint" />
          </mxGeometry>
        </mxCell>
        <mxCell id="ryIB05gUjZDWtRrVTaDK-18" value="N" style="resizable=0;html=1;whiteSpace=wrap;align=right;verticalAlign=bottom;" parent="ryIB05gUjZDWtRrVTaDK-16" connectable="0" vertex="1">
          <mxGeometry x="1" relative="1" as="geometry">
            <mxPoint x="-8" as="offset" />
          </mxGeometry>
        </mxCell>
        <mxCell id="ryIB05gUjZDWtRrVTaDK-19" value="" style="endArrow=none;html=1;rounded=0;" parent="1" target="AGyuReAx4IVv6xOUwFAU-3" edge="1">
          <mxGeometry relative="1" as="geometry">
            <mxPoint x="401" y="289.5" as="sourcePoint" />
            <mxPoint x="561" y="289.5" as="targetPoint" />
          </mxGeometry>
        </mxCell>
        <mxCell id="ryIB05gUjZDWtRrVTaDK-20" value="M" style="resizable=0;html=1;whiteSpace=wrap;align=left;verticalAlign=bottom;" parent="ryIB05gUjZDWtRrVTaDK-19" connectable="0" vertex="1">
          <mxGeometry x="-1" relative="1" as="geometry">
            <mxPoint x="5" as="offset" />
          </mxGeometry>
        </mxCell>
        <mxCell id="AGyuReAx4IVv6xOUwFAU-3" value="수강" style="shape=rhombus;perimeter=rhombusPerimeter;whiteSpace=wrap;html=1;align=center;fillColor=#d5e8d4;strokeColor=#82b366;" parent="1" vertex="1">
          <mxGeometry x="421" y="260" width="120" height="60" as="geometry" />
        </mxCell>
        <mxCell id="ryIB05gUjZDWtRrVTaDK-22" value="" style="endArrow=none;html=1;rounded=0;" parent="1" edge="1">
          <mxGeometry relative="1" as="geometry">
            <mxPoint x="561" y="289.5" as="sourcePoint" />
            <mxPoint x="681" y="289.5" as="targetPoint" />
          </mxGeometry>
        </mxCell>
        <mxCell id="ryIB05gUjZDWtRrVTaDK-23" value="" style="endArrow=none;html=1;rounded=0;" parent="1" edge="1">
          <mxGeometry relative="1" as="geometry">
            <mxPoint x="281" y="289.5" as="sourcePoint" />
            <mxPoint x="401" y="289.5" as="targetPoint" />
          </mxGeometry>
        </mxCell>
        <mxCell id="ryIB05gUjZDWtRrVTaDK-24" value="강의" style="shape=rhombus;perimeter=rhombusPerimeter;whiteSpace=wrap;html=1;align=center;fillColor=#d5e8d4;strokeColor=#82b366;" parent="1" vertex="1">
          <mxGeometry x="171" y="120" width="120" height="60" as="geometry" />
        </mxCell>
        <mxCell id="ryIB05gUjZDWtRrVTaDK-25" value="" style="endArrow=none;html=1;rounded=0;exitX=0.5;exitY=0;exitDx=0;exitDy=0;entryX=0.5;entryY=1;entryDx=0;entryDy=0;" parent="1" source="AGyuReAx4IVv6xOUwFAU-2" target="ryIB05gUjZDWtRrVTaDK-24" edge="1">
          <mxGeometry relative="1" as="geometry">
            <mxPoint x="230" y="270" as="sourcePoint" />
            <mxPoint x="231" y="190" as="targetPoint" />
          </mxGeometry>
        </mxCell>
        <mxCell id="ryIB05gUjZDWtRrVTaDK-26" value="N" style="resizable=0;html=1;whiteSpace=wrap;align=right;verticalAlign=bottom;" parent="ryIB05gUjZDWtRrVTaDK-25" connectable="0" vertex="1">
          <mxGeometry x="1" relative="1" as="geometry">
            <mxPoint x="17" y="16" as="offset" />
          </mxGeometry>
        </mxCell>
        <mxCell id="ryIB05gUjZDWtRrVTaDK-27" value="" style="endArrow=none;html=1;rounded=0;entryX=0.5;entryY=0;entryDx=0;entryDy=0;" parent="1" target="ryIB05gUjZDWtRrVTaDK-24" edge="1">
          <mxGeometry relative="1" as="geometry">
            <mxPoint x="231" y="40" as="sourcePoint" />
            <mxPoint x="230.5" y="108" as="targetPoint" />
          </mxGeometry>
        </mxCell>
        <mxCell id="ryIB05gUjZDWtRrVTaDK-28" value="1" style="resizable=0;html=1;whiteSpace=wrap;align=right;verticalAlign=bottom;" parent="ryIB05gUjZDWtRrVTaDK-27" connectable="0" vertex="1">
          <mxGeometry x="1" relative="1" as="geometry">
            <mxPoint x="15" y="1" as="offset" />
          </mxGeometry>
        </mxCell>
        <mxCell id="ryIB05gUjZDWtRrVTaDK-29" value="교수" style="whiteSpace=wrap;html=1;align=center;fillColor=#f5f5f5;fontColor=#333333;strokeColor=#666666;" parent="1" vertex="1">
          <mxGeometry x="181" width="100" height="40" as="geometry" />
        </mxCell>
        <mxCell id="ryIB05gUjZDWtRrVTaDK-30" value="" style="endArrow=none;html=1;rounded=0;" parent="1" target="ryIB05gUjZDWtRrVTaDK-32" edge="1">
          <mxGeometry relative="1" as="geometry">
            <mxPoint x="281" y="30" as="sourcePoint" />
            <mxPoint x="411" y="30" as="targetPoint" />
          </mxGeometry>
        </mxCell>
        <mxCell id="ryIB05gUjZDWtRrVTaDK-31" value="N" style="resizable=0;html=1;whiteSpace=wrap;align=right;verticalAlign=bottom;" parent="ryIB05gUjZDWtRrVTaDK-30" connectable="0" vertex="1">
          <mxGeometry x="1" relative="1" as="geometry" />
        </mxCell>
        <mxCell id="ryIB05gUjZDWtRrVTaDK-32" value="소속" style="shape=rhombus;perimeter=rhombusPerimeter;whiteSpace=wrap;html=1;align=center;fillColor=#d5e8d4;strokeColor=#82b366;" parent="1" vertex="1">
          <mxGeometry x="421" width="120" height="60" as="geometry" />
        </mxCell>
        <mxCell id="ryIB05gUjZDWtRrVTaDK-33" value="" style="endArrow=none;html=1;rounded=0;entryX=1;entryY=0.5;entryDx=0;entryDy=0;" parent="1" target="ryIB05gUjZDWtRrVTaDK-32" edge="1">
          <mxGeometry relative="1" as="geometry">
            <mxPoint x="681" y="29.5" as="sourcePoint" />
            <mxPoint x="551" y="29.5" as="targetPoint" />
            <Array as="points">
              <mxPoint x="621" y="29.5" />
            </Array>
          </mxGeometry>
        </mxCell>
        <mxCell id="ryIB05gUjZDWtRrVTaDK-34" value="1" style="resizable=0;html=1;whiteSpace=wrap;align=right;verticalAlign=bottom;" parent="ryIB05gUjZDWtRrVTaDK-33" connectable="0" vertex="1">
          <mxGeometry x="1" relative="1" as="geometry" />
        </mxCell>
        <mxCell id="ryIB05gUjZDWtRrVTaDK-35" value="학과" style="whiteSpace=wrap;html=1;align=center;fillColor=#f5f5f5;fontColor=#333333;strokeColor=#666666;" parent="1" vertex="1">
          <mxGeometry x="681" y="10" width="100" height="40" as="geometry" />
        </mxCell>
        <mxCell id="ryIB05gUjZDWtRrVTaDK-77" value="" style="edgeStyle=orthogonalEdgeStyle;rounded=0;orthogonalLoop=1;jettySize=auto;html=1;" parent="1" source="ryIB05gUjZDWtRrVTaDK-36" target="ryIB05gUjZDWtRrVTaDK-35" edge="1">
          <mxGeometry relative="1" as="geometry" />
        </mxCell>
        <mxCell id="ryIB05gUjZDWtRrVTaDK-36" value="소속" style="shape=rhombus;perimeter=rhombusPerimeter;whiteSpace=wrap;html=1;align=center;fillColor=#d5e8d4;strokeColor=#82b366;" parent="1" vertex="1">
          <mxGeometry x="671" y="120" width="120" height="60" as="geometry" />
        </mxCell>
        <mxCell id="ryIB05gUjZDWtRrVTaDK-37" value="" style="endArrow=none;html=1;rounded=0;" parent="1" edge="1">
          <mxGeometry relative="1" as="geometry">
            <mxPoint x="731" y="270" as="sourcePoint" />
            <mxPoint x="730.5" y="180" as="targetPoint" />
          </mxGeometry>
        </mxCell>
        <mxCell id="ryIB05gUjZDWtRrVTaDK-38" value="N" style="resizable=0;html=1;whiteSpace=wrap;align=right;verticalAlign=bottom;" parent="ryIB05gUjZDWtRrVTaDK-37" connectable="0" vertex="1">
          <mxGeometry x="1" relative="1" as="geometry">
            <mxPoint x="16" y="18" as="offset" />
          </mxGeometry>
        </mxCell>
        <mxCell id="ryIB05gUjZDWtRrVTaDK-42" value="" style="endArrow=none;html=1;rounded=0;" parent="1" edge="1">
          <mxGeometry relative="1" as="geometry">
            <mxPoint x="730.5" y="50" as="sourcePoint" />
            <mxPoint x="730.5" y="120" as="targetPoint" />
          </mxGeometry>
        </mxCell>
        <mxCell id="ryIB05gUjZDWtRrVTaDK-43" value="1" style="resizable=0;html=1;whiteSpace=wrap;align=right;verticalAlign=bottom;" parent="ryIB05gUjZDWtRrVTaDK-42" connectable="0" vertex="1">
          <mxGeometry x="1" relative="1" as="geometry">
            <mxPoint x="12" y="1" as="offset" />
          </mxGeometry>
        </mxCell>
        <mxCell id="ryIB05gUjZDWtRrVTaDK-44" value="교수코드" style="ellipse;whiteSpace=wrap;html=1;align=center;fontStyle=4;" parent="1" vertex="1">
          <mxGeometry x="61" y="-30" width="100" height="40" as="geometry" />
        </mxCell>
        <mxCell id="ryIB05gUjZDWtRrVTaDK-45" value="교수이름" style="ellipse;whiteSpace=wrap;html=1;align=center;" parent="1" vertex="1">
          <mxGeometry x="61" y="40" width="100" height="40" as="geometry" />
        </mxCell>
        <mxCell id="ryIB05gUjZDWtRrVTaDK-48" value="" style="endArrow=none;html=1;rounded=0;entryX=0;entryY=0.5;entryDx=0;entryDy=0;" parent="1" target="ryIB05gUjZDWtRrVTaDK-29" edge="1">
          <mxGeometry relative="1" as="geometry">
            <mxPoint x="161" y="60" as="sourcePoint" />
            <mxPoint x="321" y="60" as="targetPoint" />
          </mxGeometry>
        </mxCell>
        <mxCell id="ryIB05gUjZDWtRrVTaDK-49" value="" style="endArrow=none;html=1;rounded=0;entryX=0;entryY=0.5;entryDx=0;entryDy=0;exitX=1;exitY=0.5;exitDx=0;exitDy=0;" parent="1" source="ryIB05gUjZDWtRrVTaDK-44" target="ryIB05gUjZDWtRrVTaDK-29" edge="1">
          <mxGeometry relative="1" as="geometry">
            <mxPoint x="161" y="10" as="sourcePoint" />
            <mxPoint x="321" y="10" as="targetPoint" />
          </mxGeometry>
        </mxCell>
        <mxCell id="ryIB05gUjZDWtRrVTaDK-50" value="과목코드" style="ellipse;whiteSpace=wrap;html=1;align=center;fontStyle=4;" parent="1" vertex="1">
          <mxGeometry x="61" y="190" width="100" height="40" as="geometry" />
        </mxCell>
        <mxCell id="ryIB05gUjZDWtRrVTaDK-53" value="과목명" style="ellipse;whiteSpace=wrap;html=1;align=center;" parent="1" vertex="1">
          <mxGeometry x="61" y="240" width="100" height="40" as="geometry" />
        </mxCell>
        <mxCell id="ryIB05gUjZDWtRrVTaDK-56" value="종료일" style="ellipse;whiteSpace=wrap;html=1;align=center;" parent="1" vertex="1">
          <mxGeometry x="61" y="340" width="100" height="40" as="geometry" />
        </mxCell>
        <mxCell id="ryIB05gUjZDWtRrVTaDK-57" value="시작일" style="ellipse;whiteSpace=wrap;html=1;align=center;" parent="1" vertex="1">
          <mxGeometry x="61" y="290" width="100" height="40" as="geometry" />
        </mxCell>
        <mxCell id="ryIB05gUjZDWtRrVTaDK-67" value="" style="endArrow=none;html=1;rounded=0;exitX=1;exitY=0.5;exitDx=0;exitDy=0;" parent="1" source="ryIB05gUjZDWtRrVTaDK-50" edge="1">
          <mxGeometry relative="1" as="geometry">
            <mxPoint x="161" y="290" as="sourcePoint" />
            <mxPoint x="181" y="290" as="targetPoint" />
          </mxGeometry>
        </mxCell>
        <mxCell id="ryIB05gUjZDWtRrVTaDK-68" value="" style="endArrow=none;html=1;rounded=0;entryX=0;entryY=0.5;entryDx=0;entryDy=0;exitX=1;exitY=0.5;exitDx=0;exitDy=0;" parent="1" source="ryIB05gUjZDWtRrVTaDK-53" target="AGyuReAx4IVv6xOUwFAU-2" edge="1">
          <mxGeometry relative="1" as="geometry">
            <mxPoint x="161" y="350" as="sourcePoint" />
            <mxPoint x="321" y="350" as="targetPoint" />
            <Array as="points" />
          </mxGeometry>
        </mxCell>
        <mxCell id="ryIB05gUjZDWtRrVTaDK-69" value="" style="endArrow=none;html=1;rounded=0;exitX=1;exitY=0.5;exitDx=0;exitDy=0;" parent="1" source="ryIB05gUjZDWtRrVTaDK-57" edge="1">
          <mxGeometry relative="1" as="geometry">
            <mxPoint x="161" y="404.75" as="sourcePoint" />
            <mxPoint x="181" y="290" as="targetPoint" />
          </mxGeometry>
        </mxCell>
        <mxCell id="ryIB05gUjZDWtRrVTaDK-70" value="" style="endArrow=none;html=1;rounded=0;entryX=0;entryY=0.5;entryDx=0;entryDy=0;exitX=1;exitY=0.5;exitDx=0;exitDy=0;" parent="1" source="ryIB05gUjZDWtRrVTaDK-56" target="AGyuReAx4IVv6xOUwFAU-2" edge="1">
          <mxGeometry relative="1" as="geometry">
            <mxPoint x="171" y="440" as="sourcePoint" />
            <mxPoint x="331" y="440" as="targetPoint" />
          </mxGeometry>
        </mxCell>
        <mxCell id="ryIB05gUjZDWtRrVTaDK-78" value="학과명" style="ellipse;whiteSpace=wrap;html=1;align=center;" parent="1" vertex="1">
          <mxGeometry x="811" y="40" width="100" height="40" as="geometry" />
        </mxCell>
        <mxCell id="ryIB05gUjZDWtRrVTaDK-79" value="학번" style="ellipse;whiteSpace=wrap;html=1;align=center;fontStyle=4;" parent="1" vertex="1">
          <mxGeometry x="811" y="210" width="100" height="40" as="geometry" />
        </mxCell>
        <mxCell id="ryIB05gUjZDWtRrVTaDK-80" value="학과코드" style="ellipse;whiteSpace=wrap;html=1;align=center;fontStyle=4;" parent="1" vertex="1">
          <mxGeometry x="811" y="-30" width="100" height="40" as="geometry" />
        </mxCell>
        <mxCell id="ryIB05gUjZDWtRrVTaDK-81" value="" style="endArrow=none;html=1;rounded=0;entryX=0;entryY=0.5;entryDx=0;entryDy=0;" parent="1" target="ryIB05gUjZDWtRrVTaDK-80" edge="1">
          <mxGeometry relative="1" as="geometry">
            <mxPoint x="781" y="29.5" as="sourcePoint" />
            <mxPoint x="941" y="29.5" as="targetPoint" />
          </mxGeometry>
        </mxCell>
        <mxCell id="ryIB05gUjZDWtRrVTaDK-82" value="" style="endArrow=none;html=1;rounded=0;entryX=0;entryY=0.5;entryDx=0;entryDy=0;" parent="1" target="ryIB05gUjZDWtRrVTaDK-78" edge="1">
          <mxGeometry relative="1" as="geometry">
            <mxPoint x="781" y="29.5" as="sourcePoint" />
            <mxPoint x="941" y="29.5" as="targetPoint" />
          </mxGeometry>
        </mxCell>
        <mxCell id="ryIB05gUjZDWtRrVTaDK-83" value="이름" style="ellipse;whiteSpace=wrap;html=1;align=center;" parent="1" vertex="1">
          <mxGeometry x="811" y="270" width="100" height="40" as="geometry" />
        </mxCell>
        <mxCell id="ryIB05gUjZDWtRrVTaDK-85" value="키" style="ellipse;whiteSpace=wrap;html=1;align=center;" parent="1" vertex="1">
          <mxGeometry x="811" y="330" width="100" height="40" as="geometry" />
        </mxCell>
        <mxCell id="ryIB05gUjZDWtRrVTaDK-86" value="" style="endArrow=none;html=1;rounded=0;entryX=0;entryY=0.5;entryDx=0;entryDy=0;" parent="1" target="ryIB05gUjZDWtRrVTaDK-79" edge="1">
          <mxGeometry relative="1" as="geometry">
            <mxPoint x="781" y="290" as="sourcePoint" />
            <mxPoint x="941" y="290" as="targetPoint" />
          </mxGeometry>
        </mxCell>
        <mxCell id="ryIB05gUjZDWtRrVTaDK-87" value="" style="endArrow=none;html=1;rounded=0;" parent="1" edge="1">
          <mxGeometry relative="1" as="geometry">
            <mxPoint x="781" y="290" as="sourcePoint" />
            <mxPoint x="811" y="290" as="targetPoint" />
          </mxGeometry>
        </mxCell>
        <mxCell id="ryIB05gUjZDWtRrVTaDK-88" value="" style="endArrow=none;html=1;rounded=0;entryX=0;entryY=0.5;entryDx=0;entryDy=0;" parent="1" target="ryIB05gUjZDWtRrVTaDK-85" edge="1">
          <mxGeometry relative="1" as="geometry">
            <mxPoint x="781" y="290" as="sourcePoint" />
            <mxPoint x="941" y="290" as="targetPoint" />
          </mxGeometry>
        </mxCell>
        <mxCell id="ryIB05gUjZDWtRrVTaDK-106" value="이름" style="whiteSpace=wrap;html=1;align=center;" parent="1" vertex="1">
          <mxGeometry x="195" y="450" width="100" height="40" as="geometry" />
        </mxCell>
        <mxCell id="ryIB05gUjZDWtRrVTaDK-107" value="&lt;u&gt;학번&lt;/u&gt;" style="whiteSpace=wrap;html=1;align=center;" parent="1" vertex="1">
          <mxGeometry x="295" y="450" width="100" height="40" as="geometry" />
        </mxCell>
        <mxCell id="ryIB05gUjZDWtRrVTaDK-108" value="키" style="whiteSpace=wrap;html=1;align=center;" parent="1" vertex="1">
          <mxGeometry x="395" y="450" width="100" height="40" as="geometry" />
        </mxCell>
        <mxCell id="ryIB05gUjZDWtRrVTaDK-109" value="&lt;font style=&quot;font-size: 15px;&quot;&gt;학생&lt;/font&gt;" style="text;html=1;align=center;verticalAlign=middle;resizable=0;points=[];autosize=1;strokeColor=none;fillColor=none;" parent="1" vertex="1">
          <mxGeometry x="195" y="420" width="50" height="30" as="geometry" />
        </mxCell>
        <mxCell id="ryIB05gUjZDWtRrVTaDK-111" value="학과명" style="whiteSpace=wrap;html=1;align=center;" parent="1" vertex="1">
          <mxGeometry x="195" y="545" width="100" height="40" as="geometry" />
        </mxCell>
        <mxCell id="ryIB05gUjZDWtRrVTaDK-146" style="edgeStyle=orthogonalEdgeStyle;rounded=0;orthogonalLoop=1;jettySize=auto;html=1;exitX=0.5;exitY=0;exitDx=0;exitDy=0;entryX=0.5;entryY=1;entryDx=0;entryDy=0;" parent="1" source="ryIB05gUjZDWtRrVTaDK-112" target="ryIB05gUjZDWtRrVTaDK-131" edge="1">
          <mxGeometry relative="1" as="geometry" />
        </mxCell>
        <mxCell id="ryIB05gUjZDWtRrVTaDK-112" value="&lt;u&gt;학과코드&lt;/u&gt;" style="whiteSpace=wrap;html=1;align=center;" parent="1" vertex="1">
          <mxGeometry x="295" y="545" width="100" height="40" as="geometry" />
        </mxCell>
        <mxCell id="ryIB05gUjZDWtRrVTaDK-114" value="과목명" style="whiteSpace=wrap;html=1;align=center;" parent="1" vertex="1">
          <mxGeometry x="541" y="545" width="100" height="40" as="geometry" />
        </mxCell>
        <mxCell id="ryIB05gUjZDWtRrVTaDK-115" value="&lt;u&gt;과목코드&lt;/u&gt;" style="whiteSpace=wrap;html=1;align=center;" parent="1" vertex="1">
          <mxGeometry x="641" y="545" width="100" height="40" as="geometry" />
        </mxCell>
        <mxCell id="ryIB05gUjZDWtRrVTaDK-116" value="시작일" style="whiteSpace=wrap;html=1;align=center;" parent="1" vertex="1">
          <mxGeometry x="741" y="545" width="100" height="40" as="geometry" />
        </mxCell>
        <mxCell id="ryIB05gUjZDWtRrVTaDK-117" value="종료일" style="whiteSpace=wrap;html=1;align=center;" parent="1" vertex="1">
          <mxGeometry x="841" y="545" width="100" height="40" as="geometry" />
        </mxCell>
        <mxCell id="ryIB05gUjZDWtRrVTaDK-118" value="&lt;font style=&quot;font-size: 15px;&quot;&gt;학과&lt;/font&gt;" style="text;html=1;align=center;verticalAlign=middle;resizable=0;points=[];autosize=1;strokeColor=none;fillColor=none;" parent="1" vertex="1">
          <mxGeometry x="195" y="508" width="50" height="30" as="geometry" />
        </mxCell>
        <mxCell id="ryIB05gUjZDWtRrVTaDK-119" value="&lt;font style=&quot;font-size: 15px;&quot;&gt;과목&lt;/font&gt;" style="text;html=1;align=center;verticalAlign=middle;resizable=0;points=[];autosize=1;strokeColor=none;fillColor=none;" parent="1" vertex="1">
          <mxGeometry x="541" y="508" width="50" height="30" as="geometry" />
        </mxCell>
        <mxCell id="ryIB05gUjZDWtRrVTaDK-120" value="교수이름" style="whiteSpace=wrap;html=1;align=center;" parent="1" vertex="1">
          <mxGeometry x="195" y="640" width="100" height="40" as="geometry" />
        </mxCell>
        <mxCell id="ryIB05gUjZDWtRrVTaDK-151" style="edgeStyle=orthogonalEdgeStyle;rounded=0;orthogonalLoop=1;jettySize=auto;html=1;exitX=0.5;exitY=1;exitDx=0;exitDy=0;" parent="1" source="ryIB05gUjZDWtRrVTaDK-121" edge="1">
          <mxGeometry relative="1" as="geometry">
            <mxPoint x="1000" y="590" as="targetPoint" />
            <Array as="points">
              <mxPoint x="345" y="740" />
              <mxPoint x="1001" y="740" />
            </Array>
          </mxGeometry>
        </mxCell>
        <mxCell id="ryIB05gUjZDWtRrVTaDK-121" value="&lt;u&gt;교수코드&lt;/u&gt;" style="whiteSpace=wrap;html=1;align=center;" parent="1" vertex="1">
          <mxGeometry x="295" y="640" width="100" height="40" as="geometry" />
        </mxCell>
        <mxCell id="ryIB05gUjZDWtRrVTaDK-122" value="&lt;font style=&quot;font-size: 15px;&quot;&gt;교수&lt;/font&gt;" style="text;html=1;align=center;verticalAlign=middle;resizable=0;points=[];autosize=1;strokeColor=none;fillColor=none;" parent="1" vertex="1">
          <mxGeometry x="195" y="610" width="50" height="30" as="geometry" />
        </mxCell>
        <mxCell id="ryIB05gUjZDWtRrVTaDK-152" style="edgeStyle=orthogonalEdgeStyle;rounded=0;orthogonalLoop=1;jettySize=auto;html=1;exitX=0.5;exitY=1;exitDx=0;exitDy=0;" parent="1" source="ryIB05gUjZDWtRrVTaDK-126" edge="1">
          <mxGeometry relative="1" as="geometry">
            <mxPoint x="350" y="490" as="targetPoint" />
            <Array as="points">
              <mxPoint x="591" y="700" />
              <mxPoint x="500" y="700" />
              <mxPoint x="500" y="510" />
              <mxPoint x="350" y="510" />
            </Array>
          </mxGeometry>
        </mxCell>
        <mxCell id="ryIB05gUjZDWtRrVTaDK-126" value="&lt;u&gt;학번&lt;/u&gt;" style="whiteSpace=wrap;html=1;align=center;" parent="1" vertex="1">
          <mxGeometry x="541" y="640" width="100" height="40" as="geometry" />
        </mxCell>
        <mxCell id="ryIB05gUjZDWtRrVTaDK-147" style="edgeStyle=orthogonalEdgeStyle;rounded=0;orthogonalLoop=1;jettySize=auto;html=1;exitX=0.5;exitY=1;exitDx=0;exitDy=0;" parent="1" source="ryIB05gUjZDWtRrVTaDK-127" edge="1">
          <mxGeometry relative="1" as="geometry">
            <mxPoint x="691" y="590" as="targetPoint" />
          </mxGeometry>
        </mxCell>
        <mxCell id="ryIB05gUjZDWtRrVTaDK-127" value="&lt;u&gt;과목코드&lt;/u&gt;" style="whiteSpace=wrap;html=1;align=center;" parent="1" vertex="1">
          <mxGeometry x="641" y="640" width="100" height="40" as="geometry" />
        </mxCell>
        <mxCell id="ryIB05gUjZDWtRrVTaDK-128" value="&lt;span style=&quot;font-size: 15px;&quot;&gt;수강&lt;/span&gt;" style="text;html=1;align=center;verticalAlign=middle;resizable=0;points=[];autosize=1;strokeColor=none;fillColor=none;" parent="1" vertex="1">
          <mxGeometry x="541" y="610" width="50" height="30" as="geometry" />
        </mxCell>
        <mxCell id="ryIB05gUjZDWtRrVTaDK-129" value="&lt;u&gt;교수코드&lt;/u&gt;" style="whiteSpace=wrap;html=1;align=center;" parent="1" vertex="1">
          <mxGeometry x="941" y="545" width="100" height="40" as="geometry" />
        </mxCell>
        <mxCell id="ryIB05gUjZDWtRrVTaDK-150" style="edgeStyle=orthogonalEdgeStyle;rounded=0;orthogonalLoop=1;jettySize=auto;html=1;exitX=0.5;exitY=0;exitDx=0;exitDy=0;entryX=0.5;entryY=1;entryDx=0;entryDy=0;" parent="1" source="ryIB05gUjZDWtRrVTaDK-130" target="ryIB05gUjZDWtRrVTaDK-112" edge="1">
          <mxGeometry relative="1" as="geometry" />
        </mxCell>
        <mxCell id="ryIB05gUjZDWtRrVTaDK-130" value="&lt;u&gt;학과코드&lt;/u&gt;" style="whiteSpace=wrap;html=1;align=center;" parent="1" vertex="1">
          <mxGeometry x="395" y="640" width="100" height="40" as="geometry" />
        </mxCell>
        <mxCell id="ryIB05gUjZDWtRrVTaDK-131" value="&lt;u&gt;학과코드&lt;/u&gt;" style="whiteSpace=wrap;html=1;align=center;" parent="1" vertex="1">
          <mxGeometry x="495" y="450" width="100" height="40" as="geometry" />
        </mxCell>
        <mxCell id="1ppySApteFcxsuwrAwtB-50" value="과목" style="whiteSpace=wrap;html=1;align=center;fillColor=#f5f5f5;fontColor=#333333;strokeColor=#666666;" parent="1" vertex="1">
          <mxGeometry x="201" y="1366" width="100" height="40" as="geometry" />
        </mxCell>
        <mxCell id="1ppySApteFcxsuwrAwtB-51" value="학생" style="whiteSpace=wrap;html=1;align=center;fillColor=#f5f5f5;fontColor=#333333;strokeColor=#666666;" parent="1" vertex="1">
          <mxGeometry x="701" y="1366" width="100" height="40" as="geometry" />
        </mxCell>
        <mxCell id="1ppySApteFcxsuwrAwtB-52" value="" style="endArrow=none;html=1;rounded=0;" parent="1" source="1ppySApteFcxsuwrAwtB-56" edge="1">
          <mxGeometry relative="1" as="geometry">
            <mxPoint x="421" y="1385.5" as="sourcePoint" />
            <mxPoint x="581" y="1385.5" as="targetPoint" />
          </mxGeometry>
        </mxCell>
        <mxCell id="1ppySApteFcxsuwrAwtB-53" value="N" style="resizable=0;html=1;whiteSpace=wrap;align=right;verticalAlign=bottom;" parent="1ppySApteFcxsuwrAwtB-52" connectable="0" vertex="1">
          <mxGeometry x="1" relative="1" as="geometry">
            <mxPoint x="-8" as="offset" />
          </mxGeometry>
        </mxCell>
        <mxCell id="1ppySApteFcxsuwrAwtB-54" value="" style="endArrow=none;html=1;rounded=0;" parent="1" target="1ppySApteFcxsuwrAwtB-56" edge="1">
          <mxGeometry relative="1" as="geometry">
            <mxPoint x="421" y="1385.5" as="sourcePoint" />
            <mxPoint x="581" y="1385.5" as="targetPoint" />
          </mxGeometry>
        </mxCell>
        <mxCell id="1ppySApteFcxsuwrAwtB-55" value="M" style="resizable=0;html=1;whiteSpace=wrap;align=left;verticalAlign=bottom;" parent="1ppySApteFcxsuwrAwtB-54" connectable="0" vertex="1">
          <mxGeometry x="-1" relative="1" as="geometry">
            <mxPoint x="5" as="offset" />
          </mxGeometry>
        </mxCell>
        <mxCell id="1ppySApteFcxsuwrAwtB-56" value="사물 지능A&amp;nbsp;" style="shape=rhombus;perimeter=rhombusPerimeter;whiteSpace=wrap;html=1;align=center;fillColor=#d5e8d4;strokeColor=#82b366;" parent="1" vertex="1">
          <mxGeometry x="441" y="1356" width="120" height="60" as="geometry" />
        </mxCell>
        <mxCell id="1ppySApteFcxsuwrAwtB-57" value="" style="endArrow=none;html=1;rounded=0;" parent="1" edge="1">
          <mxGeometry relative="1" as="geometry">
            <mxPoint x="581" y="1385.5" as="sourcePoint" />
            <mxPoint x="701" y="1385.5" as="targetPoint" />
          </mxGeometry>
        </mxCell>
        <mxCell id="1ppySApteFcxsuwrAwtB-58" value="" style="endArrow=none;html=1;rounded=0;" parent="1" edge="1">
          <mxGeometry relative="1" as="geometry">
            <mxPoint x="301" y="1385.5" as="sourcePoint" />
            <mxPoint x="421" y="1385.5" as="targetPoint" />
          </mxGeometry>
        </mxCell>
        <mxCell id="1ppySApteFcxsuwrAwtB-59" value="강의" style="shape=rhombus;perimeter=rhombusPerimeter;whiteSpace=wrap;html=1;align=center;fillColor=#d5e8d4;strokeColor=#82b366;" parent="1" vertex="1">
          <mxGeometry x="191" y="1216" width="120" height="60" as="geometry" />
        </mxCell>
        <mxCell id="1ppySApteFcxsuwrAwtB-60" value="" style="endArrow=none;html=1;rounded=0;exitX=0.5;exitY=0;exitDx=0;exitDy=0;entryX=0.5;entryY=1;entryDx=0;entryDy=0;" parent="1" source="1ppySApteFcxsuwrAwtB-50" target="1ppySApteFcxsuwrAwtB-59" edge="1">
          <mxGeometry relative="1" as="geometry">
            <mxPoint x="250" y="1366" as="sourcePoint" />
            <mxPoint x="251" y="1286" as="targetPoint" />
          </mxGeometry>
        </mxCell>
        <mxCell id="1ppySApteFcxsuwrAwtB-61" value="1" style="resizable=0;html=1;whiteSpace=wrap;align=right;verticalAlign=bottom;" parent="1ppySApteFcxsuwrAwtB-60" connectable="0" vertex="1">
          <mxGeometry x="1" relative="1" as="geometry">
            <mxPoint x="14" y="16" as="offset" />
          </mxGeometry>
        </mxCell>
        <mxCell id="1ppySApteFcxsuwrAwtB-62" value="" style="endArrow=none;html=1;rounded=0;entryX=0.5;entryY=0;entryDx=0;entryDy=0;" parent="1" target="1ppySApteFcxsuwrAwtB-59" edge="1">
          <mxGeometry relative="1" as="geometry">
            <mxPoint x="251" y="1136" as="sourcePoint" />
            <mxPoint x="250.5" y="1204" as="targetPoint" />
          </mxGeometry>
        </mxCell>
        <mxCell id="1ppySApteFcxsuwrAwtB-63" value="N" style="resizable=0;html=1;whiteSpace=wrap;align=right;verticalAlign=bottom;" parent="1ppySApteFcxsuwrAwtB-62" connectable="0" vertex="1">
          <mxGeometry x="1" relative="1" as="geometry">
            <mxPoint x="15" y="1" as="offset" />
          </mxGeometry>
        </mxCell>
        <mxCell id="1ppySApteFcxsuwrAwtB-64" value="강사" style="whiteSpace=wrap;html=1;align=center;fillColor=#f5f5f5;fontColor=#333333;strokeColor=#666666;" parent="1" vertex="1">
          <mxGeometry x="201" y="1096" width="100" height="40" as="geometry" />
        </mxCell>
        <mxCell id="1ppySApteFcxsuwrAwtB-70" value="전공" style="whiteSpace=wrap;html=1;align=center;fillColor=#f5f5f5;fontColor=#333333;strokeColor=#666666;" parent="1" vertex="1">
          <mxGeometry x="701" y="1106" width="100" height="40" as="geometry" />
        </mxCell>
        <mxCell id="1ppySApteFcxsuwrAwtB-72" value="소속" style="shape=rhombus;perimeter=rhombusPerimeter;whiteSpace=wrap;html=1;align=center;fillColor=#d5e8d4;strokeColor=#82b366;" parent="1" vertex="1">
          <mxGeometry x="691" y="1216" width="120" height="60" as="geometry" />
        </mxCell>
        <mxCell id="1ppySApteFcxsuwrAwtB-73" value="" style="endArrow=none;html=1;rounded=0;" parent="1" edge="1">
          <mxGeometry relative="1" as="geometry">
            <mxPoint x="751" y="1366" as="sourcePoint" />
            <mxPoint x="750.5" y="1276" as="targetPoint" />
          </mxGeometry>
        </mxCell>
        <mxCell id="1ppySApteFcxsuwrAwtB-74" value="N" style="resizable=0;html=1;whiteSpace=wrap;align=right;verticalAlign=bottom;" parent="1ppySApteFcxsuwrAwtB-73" connectable="0" vertex="1">
          <mxGeometry x="1" relative="1" as="geometry">
            <mxPoint x="16" y="18" as="offset" />
          </mxGeometry>
        </mxCell>
        <mxCell id="1ppySApteFcxsuwrAwtB-75" value="" style="endArrow=none;html=1;rounded=0;" parent="1" edge="1">
          <mxGeometry relative="1" as="geometry">
            <mxPoint x="750" y="1148" as="sourcePoint" />
            <mxPoint x="750.5" y="1216" as="targetPoint" />
          </mxGeometry>
        </mxCell>
        <mxCell id="1ppySApteFcxsuwrAwtB-76" value="1" style="resizable=0;html=1;whiteSpace=wrap;align=right;verticalAlign=bottom;" parent="1ppySApteFcxsuwrAwtB-75" connectable="0" vertex="1">
          <mxGeometry x="1" relative="1" as="geometry">
            <mxPoint x="12" y="1" as="offset" />
          </mxGeometry>
        </mxCell>
        <mxCell id="1ppySApteFcxsuwrAwtB-77" value="강사코드" style="ellipse;whiteSpace=wrap;html=1;align=center;fontStyle=4;" parent="1" vertex="1">
          <mxGeometry x="81" y="1066" width="100" height="40" as="geometry" />
        </mxCell>
        <mxCell id="1ppySApteFcxsuwrAwtB-78" value="강사이름" style="ellipse;whiteSpace=wrap;html=1;align=center;" parent="1" vertex="1">
          <mxGeometry x="81" y="1136" width="100" height="40" as="geometry" />
        </mxCell>
        <mxCell id="1ppySApteFcxsuwrAwtB-79" value="" style="endArrow=none;html=1;rounded=0;entryX=0;entryY=0.5;entryDx=0;entryDy=0;" parent="1" target="1ppySApteFcxsuwrAwtB-64" edge="1">
          <mxGeometry relative="1" as="geometry">
            <mxPoint x="181" y="1156" as="sourcePoint" />
            <mxPoint x="341" y="1156" as="targetPoint" />
          </mxGeometry>
        </mxCell>
        <mxCell id="1ppySApteFcxsuwrAwtB-80" value="" style="endArrow=none;html=1;rounded=0;entryX=0;entryY=0.5;entryDx=0;entryDy=0;exitX=1;exitY=0.5;exitDx=0;exitDy=0;" parent="1" source="1ppySApteFcxsuwrAwtB-77" target="1ppySApteFcxsuwrAwtB-64" edge="1">
          <mxGeometry relative="1" as="geometry">
            <mxPoint x="181" y="1106" as="sourcePoint" />
            <mxPoint x="341" y="1106" as="targetPoint" />
          </mxGeometry>
        </mxCell>
        <mxCell id="1ppySApteFcxsuwrAwtB-81" value="과목코드" style="ellipse;whiteSpace=wrap;html=1;align=center;fontStyle=4;" parent="1" vertex="1">
          <mxGeometry x="81" y="1286" width="100" height="40" as="geometry" />
        </mxCell>
        <mxCell id="1ppySApteFcxsuwrAwtB-82" value="과목명" style="ellipse;whiteSpace=wrap;html=1;align=center;" parent="1" vertex="1">
          <mxGeometry x="81" y="1336" width="100" height="40" as="geometry" />
        </mxCell>
        <mxCell id="1ppySApteFcxsuwrAwtB-83" value="종료일" style="ellipse;whiteSpace=wrap;html=1;align=center;" parent="1" vertex="1">
          <mxGeometry x="81" y="1436" width="100" height="40" as="geometry" />
        </mxCell>
        <mxCell id="1ppySApteFcxsuwrAwtB-84" value="시작일" style="ellipse;whiteSpace=wrap;html=1;align=center;" parent="1" vertex="1">
          <mxGeometry x="81" y="1386" width="100" height="40" as="geometry" />
        </mxCell>
        <mxCell id="1ppySApteFcxsuwrAwtB-85" value="" style="endArrow=none;html=1;rounded=0;exitX=1;exitY=0.5;exitDx=0;exitDy=0;" parent="1" source="1ppySApteFcxsuwrAwtB-81" edge="1">
          <mxGeometry relative="1" as="geometry">
            <mxPoint x="181" y="1386" as="sourcePoint" />
            <mxPoint x="201" y="1386" as="targetPoint" />
          </mxGeometry>
        </mxCell>
        <mxCell id="1ppySApteFcxsuwrAwtB-86" value="" style="endArrow=none;html=1;rounded=0;entryX=0;entryY=0.5;entryDx=0;entryDy=0;exitX=1;exitY=0.5;exitDx=0;exitDy=0;" parent="1" source="1ppySApteFcxsuwrAwtB-82" target="1ppySApteFcxsuwrAwtB-50" edge="1">
          <mxGeometry relative="1" as="geometry">
            <mxPoint x="181" y="1446" as="sourcePoint" />
            <mxPoint x="341" y="1446" as="targetPoint" />
            <Array as="points" />
          </mxGeometry>
        </mxCell>
        <mxCell id="1ppySApteFcxsuwrAwtB-87" value="" style="endArrow=none;html=1;rounded=0;exitX=1;exitY=0.5;exitDx=0;exitDy=0;" parent="1" source="1ppySApteFcxsuwrAwtB-84" edge="1">
          <mxGeometry relative="1" as="geometry">
            <mxPoint x="181" y="1500.75" as="sourcePoint" />
            <mxPoint x="201" y="1386" as="targetPoint" />
          </mxGeometry>
        </mxCell>
        <mxCell id="1ppySApteFcxsuwrAwtB-88" value="" style="endArrow=none;html=1;rounded=0;entryX=0;entryY=0.5;entryDx=0;entryDy=0;exitX=1;exitY=0.5;exitDx=0;exitDy=0;" parent="1" source="1ppySApteFcxsuwrAwtB-83" target="1ppySApteFcxsuwrAwtB-50" edge="1">
          <mxGeometry relative="1" as="geometry">
            <mxPoint x="191" y="1536" as="sourcePoint" />
            <mxPoint x="351" y="1536" as="targetPoint" />
          </mxGeometry>
        </mxCell>
        <mxCell id="1ppySApteFcxsuwrAwtB-89" value="전공 명" style="ellipse;whiteSpace=wrap;html=1;align=center;" parent="1" vertex="1">
          <mxGeometry x="831" y="1136" width="100" height="40" as="geometry" />
        </mxCell>
        <mxCell id="1ppySApteFcxsuwrAwtB-90" value="학생코드" style="ellipse;whiteSpace=wrap;html=1;align=center;fontStyle=4;" parent="1" vertex="1">
          <mxGeometry x="831" y="1273" width="100" height="40" as="geometry" />
        </mxCell>
        <mxCell id="1ppySApteFcxsuwrAwtB-91" value="전공코드" style="ellipse;whiteSpace=wrap;html=1;align=center;fontStyle=4;" parent="1" vertex="1">
          <mxGeometry x="831" y="1066" width="100" height="40" as="geometry" />
        </mxCell>
        <mxCell id="1ppySApteFcxsuwrAwtB-92" value="" style="endArrow=none;html=1;rounded=0;entryX=0;entryY=0.5;entryDx=0;entryDy=0;" parent="1" target="1ppySApteFcxsuwrAwtB-91" edge="1">
          <mxGeometry relative="1" as="geometry">
            <mxPoint x="801" y="1125.5" as="sourcePoint" />
            <mxPoint x="961" y="1125.5" as="targetPoint" />
          </mxGeometry>
        </mxCell>
        <mxCell id="1ppySApteFcxsuwrAwtB-93" value="" style="endArrow=none;html=1;rounded=0;entryX=0;entryY=0.5;entryDx=0;entryDy=0;" parent="1" target="1ppySApteFcxsuwrAwtB-89" edge="1">
          <mxGeometry relative="1" as="geometry">
            <mxPoint x="801" y="1125.5" as="sourcePoint" />
            <mxPoint x="961" y="1125.5" as="targetPoint" />
          </mxGeometry>
        </mxCell>
        <mxCell id="1ppySApteFcxsuwrAwtB-94" value="학생이름" style="ellipse;whiteSpace=wrap;html=1;align=center;" parent="1" vertex="1">
          <mxGeometry x="831" y="1313" width="100" height="40" as="geometry" />
        </mxCell>
        <mxCell id="1ppySApteFcxsuwrAwtB-95" value="좌석" style="ellipse;whiteSpace=wrap;html=1;align=center;" parent="1" vertex="1">
          <mxGeometry x="831" y="1353" width="100" height="40" as="geometry" />
        </mxCell>
        <mxCell id="1ppySApteFcxsuwrAwtB-96" value="" style="endArrow=none;html=1;rounded=0;entryX=0;entryY=0.5;entryDx=0;entryDy=0;" parent="1" target="1ppySApteFcxsuwrAwtB-90" edge="1">
          <mxGeometry relative="1" as="geometry">
            <mxPoint x="801" y="1386" as="sourcePoint" />
            <mxPoint x="961" y="1386" as="targetPoint" />
          </mxGeometry>
        </mxCell>
        <mxCell id="1ppySApteFcxsuwrAwtB-97" value="" style="endArrow=none;html=1;rounded=0;entryX=0;entryY=0.5;entryDx=0;entryDy=0;" parent="1" target="1ppySApteFcxsuwrAwtB-95" edge="1">
          <mxGeometry relative="1" as="geometry">
            <mxPoint x="801" y="1386" as="sourcePoint" />
            <mxPoint x="831" y="1386" as="targetPoint" />
          </mxGeometry>
        </mxCell>
        <mxCell id="1ppySApteFcxsuwrAwtB-101" value="" style="endArrow=none;html=1;rounded=0;entryX=0;entryY=0.5;entryDx=0;entryDy=0;" parent="1" target="1ppySApteFcxsuwrAwtB-94" edge="1">
          <mxGeometry relative="1" as="geometry">
            <mxPoint x="801" y="1385" as="sourcePoint" />
            <mxPoint x="961" y="1385" as="targetPoint" />
          </mxGeometry>
        </mxCell>
        <mxCell id="1ppySApteFcxsuwrAwtB-102" value="출석" style="ellipse;whiteSpace=wrap;html=1;align=center;" parent="1" vertex="1">
          <mxGeometry x="831" y="1396" width="100" height="40" as="geometry" />
        </mxCell>
        <mxCell id="1ppySApteFcxsuwrAwtB-103" value="성적" style="ellipse;whiteSpace=wrap;html=1;align=center;" parent="1" vertex="1">
          <mxGeometry x="831" y="1436" width="100" height="40" as="geometry" />
        </mxCell>
        <mxCell id="1ppySApteFcxsuwrAwtB-104" value="" style="endArrow=none;html=1;rounded=0;entryX=0;entryY=0.5;entryDx=0;entryDy=0;exitX=1;exitY=0.5;exitDx=0;exitDy=0;" parent="1" source="1ppySApteFcxsuwrAwtB-51" target="1ppySApteFcxsuwrAwtB-102" edge="1">
          <mxGeometry relative="1" as="geometry">
            <mxPoint x="811" y="1396" as="sourcePoint" />
            <mxPoint x="841" y="1383" as="targetPoint" />
          </mxGeometry>
        </mxCell>
        <mxCell id="1ppySApteFcxsuwrAwtB-105" value="" style="endArrow=none;html=1;rounded=0;exitX=1;exitY=0.5;exitDx=0;exitDy=0;" parent="1" source="1ppySApteFcxsuwrAwtB-51" edge="1">
          <mxGeometry relative="1" as="geometry">
            <mxPoint x="821" y="1406" as="sourcePoint" />
            <mxPoint x="830" y="1458" as="targetPoint" />
          </mxGeometry>
        </mxCell>
        <mxCell id="1ppySApteFcxsuwrAwtB-111" value="이름" style="whiteSpace=wrap;html=1;align=center;" parent="1" vertex="1">
          <mxGeometry x="205" y="1600" width="100" height="40" as="geometry" />
        </mxCell>
        <mxCell id="1ppySApteFcxsuwrAwtB-112" value="&lt;u&gt;학생코드&lt;/u&gt;" style="whiteSpace=wrap;html=1;align=center;" parent="1" vertex="1">
          <mxGeometry x="305" y="1600" width="100" height="40" as="geometry" />
        </mxCell>
        <mxCell id="1ppySApteFcxsuwrAwtB-113" value="좌석" style="whiteSpace=wrap;html=1;align=center;" parent="1" vertex="1">
          <mxGeometry x="405" y="1600" width="100" height="40" as="geometry" />
        </mxCell>
        <mxCell id="1ppySApteFcxsuwrAwtB-114" value="&lt;font style=&quot;font-size: 15px;&quot;&gt;학생&lt;/font&gt;" style="text;html=1;align=center;verticalAlign=middle;resizable=0;points=[];autosize=1;strokeColor=none;fillColor=none;" parent="1" vertex="1">
          <mxGeometry x="205" y="1570" width="50" height="30" as="geometry" />
        </mxCell>
        <mxCell id="1ppySApteFcxsuwrAwtB-115" value="학과명" style="whiteSpace=wrap;html=1;align=center;" parent="1" vertex="1">
          <mxGeometry x="205" y="1695" width="100" height="40" as="geometry" />
        </mxCell>
        <mxCell id="1ppySApteFcxsuwrAwtB-116" style="edgeStyle=orthogonalEdgeStyle;rounded=0;orthogonalLoop=1;jettySize=auto;html=1;exitX=0.5;exitY=0;exitDx=0;exitDy=0;entryX=0.5;entryY=1;entryDx=0;entryDy=0;" parent="1" source="1ppySApteFcxsuwrAwtB-117" target="1ppySApteFcxsuwrAwtB-136" edge="1">
          <mxGeometry relative="1" as="geometry" />
        </mxCell>
        <mxCell id="1ppySApteFcxsuwrAwtB-117" value="&lt;u&gt;학과코드&lt;/u&gt;" style="whiteSpace=wrap;html=1;align=center;" parent="1" vertex="1">
          <mxGeometry x="305" y="1695" width="100" height="40" as="geometry" />
        </mxCell>
        <mxCell id="1ppySApteFcxsuwrAwtB-118" value="과목명" style="whiteSpace=wrap;html=1;align=center;" parent="1" vertex="1">
          <mxGeometry x="551" y="1695" width="100" height="40" as="geometry" />
        </mxCell>
        <mxCell id="1ppySApteFcxsuwrAwtB-119" value="&lt;u&gt;과목코드&lt;/u&gt;" style="whiteSpace=wrap;html=1;align=center;" parent="1" vertex="1">
          <mxGeometry x="651" y="1695" width="100" height="40" as="geometry" />
        </mxCell>
        <mxCell id="1ppySApteFcxsuwrAwtB-120" value="시작일" style="whiteSpace=wrap;html=1;align=center;" parent="1" vertex="1">
          <mxGeometry x="751" y="1695" width="100" height="40" as="geometry" />
        </mxCell>
        <mxCell id="1ppySApteFcxsuwrAwtB-121" value="종료일" style="whiteSpace=wrap;html=1;align=center;" parent="1" vertex="1">
          <mxGeometry x="851" y="1695" width="100" height="40" as="geometry" />
        </mxCell>
        <mxCell id="1ppySApteFcxsuwrAwtB-122" value="&lt;font style=&quot;font-size: 15px;&quot;&gt;학과&lt;/font&gt;" style="text;html=1;align=center;verticalAlign=middle;resizable=0;points=[];autosize=1;strokeColor=none;fillColor=none;" parent="1" vertex="1">
          <mxGeometry x="205" y="1658" width="50" height="30" as="geometry" />
        </mxCell>
        <mxCell id="1ppySApteFcxsuwrAwtB-123" value="&lt;font style=&quot;font-size: 15px;&quot;&gt;과목&lt;/font&gt;" style="text;html=1;align=center;verticalAlign=middle;resizable=0;points=[];autosize=1;strokeColor=none;fillColor=none;" parent="1" vertex="1">
          <mxGeometry x="551" y="1658" width="50" height="30" as="geometry" />
        </mxCell>
        <mxCell id="1ppySApteFcxsuwrAwtB-124" value="교사이름" style="whiteSpace=wrap;html=1;align=center;" parent="1" vertex="1">
          <mxGeometry x="205" y="1790" width="100" height="40" as="geometry" />
        </mxCell>
        <mxCell id="1ppySApteFcxsuwrAwtB-125" style="edgeStyle=orthogonalEdgeStyle;rounded=0;orthogonalLoop=1;jettySize=auto;html=1;exitX=0.5;exitY=1;exitDx=0;exitDy=0;" parent="1" source="1ppySApteFcxsuwrAwtB-126" edge="1">
          <mxGeometry relative="1" as="geometry">
            <mxPoint x="1010" y="1740" as="targetPoint" />
            <Array as="points">
              <mxPoint x="355" y="1890" />
              <mxPoint x="1011" y="1890" />
            </Array>
          </mxGeometry>
        </mxCell>
        <mxCell id="1ppySApteFcxsuwrAwtB-126" value="&lt;u&gt;교수코드&lt;/u&gt;" style="whiteSpace=wrap;html=1;align=center;" parent="1" vertex="1">
          <mxGeometry x="305" y="1790" width="100" height="40" as="geometry" />
        </mxCell>
        <mxCell id="1ppySApteFcxsuwrAwtB-127" value="&lt;font style=&quot;font-size: 15px;&quot;&gt;교사&lt;/font&gt;" style="text;html=1;align=center;verticalAlign=middle;resizable=0;points=[];autosize=1;strokeColor=none;fillColor=none;" parent="1" vertex="1">
          <mxGeometry x="205" y="1760" width="50" height="30" as="geometry" />
        </mxCell>
        <mxCell id="1ppySApteFcxsuwrAwtB-128" style="edgeStyle=orthogonalEdgeStyle;rounded=0;orthogonalLoop=1;jettySize=auto;html=1;exitX=0.5;exitY=1;exitDx=0;exitDy=0;" parent="1" source="1ppySApteFcxsuwrAwtB-129" edge="1">
          <mxGeometry relative="1" as="geometry">
            <mxPoint x="360" y="1640" as="targetPoint" />
            <Array as="points">
              <mxPoint x="601" y="1850" />
              <mxPoint x="510" y="1850" />
              <mxPoint x="510" y="1660" />
              <mxPoint x="360" y="1660" />
            </Array>
          </mxGeometry>
        </mxCell>
        <mxCell id="1ppySApteFcxsuwrAwtB-129" value="&lt;u&gt;학생코드&lt;/u&gt;" style="whiteSpace=wrap;html=1;align=center;" parent="1" vertex="1">
          <mxGeometry x="551" y="1790" width="100" height="40" as="geometry" />
        </mxCell>
        <mxCell id="1ppySApteFcxsuwrAwtB-130" style="edgeStyle=orthogonalEdgeStyle;rounded=0;orthogonalLoop=1;jettySize=auto;html=1;exitX=0.5;exitY=1;exitDx=0;exitDy=0;" parent="1" source="1ppySApteFcxsuwrAwtB-131" edge="1">
          <mxGeometry relative="1" as="geometry">
            <mxPoint x="701" y="1740" as="targetPoint" />
          </mxGeometry>
        </mxCell>
        <mxCell id="1ppySApteFcxsuwrAwtB-131" value="&lt;u&gt;과목코드&lt;/u&gt;" style="whiteSpace=wrap;html=1;align=center;" parent="1" vertex="1">
          <mxGeometry x="651" y="1790" width="100" height="40" as="geometry" />
        </mxCell>
        <mxCell id="1ppySApteFcxsuwrAwtB-132" value="&lt;span style=&quot;font-size: 15px;&quot;&gt;수강&lt;/span&gt;" style="text;html=1;align=center;verticalAlign=middle;resizable=0;points=[];autosize=1;strokeColor=none;fillColor=none;" parent="1" vertex="1">
          <mxGeometry x="551" y="1760" width="50" height="30" as="geometry" />
        </mxCell>
        <mxCell id="1ppySApteFcxsuwrAwtB-133" value="&lt;u&gt;교사코드&lt;/u&gt;" style="whiteSpace=wrap;html=1;align=center;" parent="1" vertex="1">
          <mxGeometry x="951" y="1695" width="100" height="40" as="geometry" />
        </mxCell>
        <mxCell id="1ppySApteFcxsuwrAwtB-134" style="edgeStyle=orthogonalEdgeStyle;rounded=0;orthogonalLoop=1;jettySize=auto;html=1;exitX=0.5;exitY=0;exitDx=0;exitDy=0;entryX=0.5;entryY=1;entryDx=0;entryDy=0;" parent="1" source="1ppySApteFcxsuwrAwtB-135" target="1ppySApteFcxsuwrAwtB-117" edge="1">
          <mxGeometry relative="1" as="geometry" />
        </mxCell>
        <mxCell id="1ppySApteFcxsuwrAwtB-135" value="&lt;u&gt;학과코드&lt;/u&gt;" style="whiteSpace=wrap;html=1;align=center;" parent="1" vertex="1">
          <mxGeometry x="405" y="1790" width="100" height="40" as="geometry" />
        </mxCell>
        <mxCell id="1ppySApteFcxsuwrAwtB-136" value="&lt;u&gt;학과코드&lt;/u&gt;" style="whiteSpace=wrap;html=1;align=center;" parent="1" vertex="1">
          <mxGeometry x="505" y="1600" width="100" height="40" as="geometry" />
        </mxCell>
        <mxCell id="1ppySApteFcxsuwrAwtB-137" value="출석" style="whiteSpace=wrap;html=1;align=center;" parent="1" vertex="1">
          <mxGeometry x="605" y="1600" width="100" height="40" as="geometry" />
        </mxCell>
        <mxCell id="me-zzTVEZXQxd7xdhl99-1" value="성명" style="whiteSpace=wrap;html=1;align=center;" parent="1" vertex="1">
          <mxGeometry x="371" y="2130" width="100" height="40" as="geometry" />
        </mxCell>
        <mxCell id="me-zzTVEZXQxd7xdhl99-2" value="주소" style="whiteSpace=wrap;html=1;align=center;" parent="1" vertex="1">
          <mxGeometry x="471" y="2130" width="100" height="40" as="geometry" />
        </mxCell>
        <mxCell id="me-zzTVEZXQxd7xdhl99-4" value="&lt;span style=&quot;font-size: 15px;&quot;&gt;고객&lt;/span&gt;" style="text;html=1;align=center;verticalAlign=middle;resizable=0;points=[];autosize=1;strokeColor=none;fillColor=none;" parent="1" vertex="1">
          <mxGeometry x="271" y="2100" width="50" height="30" as="geometry" />
        </mxCell>
        <mxCell id="me-zzTVEZXQxd7xdhl99-5" value="&lt;u&gt;고객번호&lt;/u&gt;" style="whiteSpace=wrap;html=1;align=center;" parent="1" vertex="1">
          <mxGeometry x="271" y="2130" width="100" height="40" as="geometry" />
        </mxCell>
        <mxCell id="me-zzTVEZXQxd7xdhl99-6" value="품명" style="whiteSpace=wrap;html=1;align=center;" parent="1" vertex="1">
          <mxGeometry x="371" y="2240" width="100" height="40" as="geometry" />
        </mxCell>
        <mxCell id="me-zzTVEZXQxd7xdhl99-7" value="수량" style="whiteSpace=wrap;html=1;align=center;" parent="1" vertex="1">
          <mxGeometry x="471" y="2240" width="100" height="40" as="geometry" />
        </mxCell>
        <mxCell id="me-zzTVEZXQxd7xdhl99-8" value="금액" style="whiteSpace=wrap;html=1;align=center;" parent="1" vertex="1">
          <mxGeometry x="571" y="2240" width="100" height="40" as="geometry" />
        </mxCell>
        <mxCell id="me-zzTVEZXQxd7xdhl99-9" value="&lt;span style=&quot;font-size: 15px;&quot;&gt;주문서&lt;/span&gt;" style="text;html=1;align=center;verticalAlign=middle;resizable=0;points=[];autosize=1;strokeColor=none;fillColor=none;" parent="1" vertex="1">
          <mxGeometry x="261" y="2210" width="70" height="30" as="geometry" />
        </mxCell>
        <mxCell id="me-zzTVEZXQxd7xdhl99-12" style="edgeStyle=orthogonalEdgeStyle;rounded=0;orthogonalLoop=1;jettySize=auto;html=1;exitX=0.5;exitY=0;exitDx=0;exitDy=0;entryX=0.5;entryY=1;entryDx=0;entryDy=0;" parent="1" source="me-zzTVEZXQxd7xdhl99-10" target="me-zzTVEZXQxd7xdhl99-11" edge="1">
          <mxGeometry relative="1" as="geometry" />
        </mxCell>
        <mxCell id="me-zzTVEZXQxd7xdhl99-10" value="&lt;u&gt;주문번호&lt;/u&gt;" style="whiteSpace=wrap;html=1;align=center;" parent="1" vertex="1">
          <mxGeometry x="271" y="2240" width="100" height="40" as="geometry" />
        </mxCell>
        <mxCell id="me-zzTVEZXQxd7xdhl99-11" value="&lt;u&gt;주문번호&lt;/u&gt;" style="whiteSpace=wrap;html=1;align=center;" parent="1" vertex="1">
          <mxGeometry x="571" y="2130" width="100" height="40" as="geometry" />
        </mxCell>
        <mxCell id="9y1bi-Uoe04GYYNvi3n7-87" style="edgeStyle=orthogonalEdgeStyle;rounded=0;orthogonalLoop=1;jettySize=auto;html=1;exitX=0.5;exitY=0;exitDx=0;exitDy=0;" edge="1" parent="1" source="Lad_qdYqStw2mXV45Vpa-8" target="Lad_qdYqStw2mXV45Vpa-9">
          <mxGeometry relative="1" as="geometry" />
        </mxCell>
        <mxCell id="Lad_qdYqStw2mXV45Vpa-8" value="" style="whiteSpace=wrap;html=1;align=center;" parent="1" vertex="1">
          <mxGeometry x="281" y="4210" width="100" height="40" as="geometry" />
        </mxCell>
        <mxCell id="Lad_qdYqStw2mXV45Vpa-9" value="&lt;u&gt;학생코드&lt;/u&gt;" style="whiteSpace=wrap;html=1;align=center;" parent="1" vertex="1">
          <mxGeometry x="381" y="4210" width="100" height="40" as="geometry" />
        </mxCell>
        <mxCell id="Lad_qdYqStw2mXV45Vpa-10" value="좌석" style="whiteSpace=wrap;html=1;align=center;" parent="1" vertex="1">
          <mxGeometry x="481" y="4210" width="100" height="40" as="geometry" />
        </mxCell>
        <mxCell id="Lad_qdYqStw2mXV45Vpa-11" value="&lt;font style=&quot;font-size: 15px;&quot;&gt;사용자&lt;/font&gt;" style="text;html=1;align=center;verticalAlign=middle;resizable=0;points=[];autosize=1;strokeColor=none;fillColor=none;" parent="1" vertex="1">
          <mxGeometry x="286" y="4160" width="70" height="30" as="geometry" />
        </mxCell>
        <mxCell id="Lad_qdYqStw2mXV45Vpa-12" value="&lt;u&gt;학과코드&lt;/u&gt;" style="whiteSpace=wrap;html=1;align=center;" parent="1" vertex="1">
          <mxGeometry x="581" y="4210" width="100" height="40" as="geometry" />
        </mxCell>
        <mxCell id="Lad_qdYqStw2mXV45Vpa-13" value="출석" style="whiteSpace=wrap;html=1;align=center;" parent="1" vertex="1">
          <mxGeometry x="681" y="4210" width="100" height="40" as="geometry" />
        </mxCell>
        <mxCell id="KppniZACtA5Ze27jZTz4-1" value="과목" style="whiteSpace=wrap;html=1;align=center;fillColor=#f5f5f5;fontColor=#333333;strokeColor=#666666;" parent="1" vertex="1">
          <mxGeometry x="205" y="2980" width="100" height="40" as="geometry" />
        </mxCell>
        <mxCell id="KppniZACtA5Ze27jZTz4-2" value="사용자" style="whiteSpace=wrap;html=1;align=center;fillColor=#f5f5f5;fontColor=#333333;strokeColor=#666666;" parent="1" vertex="1">
          <mxGeometry x="705" y="2980" width="100" height="40" as="geometry" />
        </mxCell>
        <mxCell id="KppniZACtA5Ze27jZTz4-3" value="" style="endArrow=none;html=1;rounded=0;" parent="1" source="KppniZACtA5Ze27jZTz4-7" edge="1">
          <mxGeometry relative="1" as="geometry">
            <mxPoint x="425" y="2999.5" as="sourcePoint" />
            <mxPoint x="585" y="2999.5" as="targetPoint" />
          </mxGeometry>
        </mxCell>
        <mxCell id="KppniZACtA5Ze27jZTz4-4" value="N" style="resizable=0;html=1;whiteSpace=wrap;align=right;verticalAlign=bottom;" parent="KppniZACtA5Ze27jZTz4-3" connectable="0" vertex="1">
          <mxGeometry x="1" relative="1" as="geometry">
            <mxPoint x="-8" as="offset" />
          </mxGeometry>
        </mxCell>
        <mxCell id="KppniZACtA5Ze27jZTz4-5" value="" style="endArrow=none;html=1;rounded=0;" parent="1" target="KppniZACtA5Ze27jZTz4-7" edge="1">
          <mxGeometry relative="1" as="geometry">
            <mxPoint x="425" y="2999.5" as="sourcePoint" />
            <mxPoint x="585" y="2999.5" as="targetPoint" />
          </mxGeometry>
        </mxCell>
        <mxCell id="KppniZACtA5Ze27jZTz4-6" value="M" style="resizable=0;html=1;whiteSpace=wrap;align=left;verticalAlign=bottom;" parent="KppniZACtA5Ze27jZTz4-5" connectable="0" vertex="1">
          <mxGeometry x="-1" relative="1" as="geometry">
            <mxPoint x="5" as="offset" />
          </mxGeometry>
        </mxCell>
        <mxCell id="KppniZACtA5Ze27jZTz4-7" value="사물 지능A&amp;nbsp;" style="shape=rhombus;perimeter=rhombusPerimeter;whiteSpace=wrap;html=1;align=center;fillColor=#d5e8d4;strokeColor=#82b366;" parent="1" vertex="1">
          <mxGeometry x="445" y="2970" width="120" height="60" as="geometry" />
        </mxCell>
        <mxCell id="KppniZACtA5Ze27jZTz4-8" value="" style="endArrow=none;html=1;rounded=0;" parent="1" edge="1">
          <mxGeometry relative="1" as="geometry">
            <mxPoint x="585" y="2999.5" as="sourcePoint" />
            <mxPoint x="705" y="2999.5" as="targetPoint" />
          </mxGeometry>
        </mxCell>
        <mxCell id="KppniZACtA5Ze27jZTz4-9" value="" style="endArrow=none;html=1;rounded=0;" parent="1" edge="1">
          <mxGeometry relative="1" as="geometry">
            <mxPoint x="305" y="2999.5" as="sourcePoint" />
            <mxPoint x="425" y="2999.5" as="targetPoint" />
          </mxGeometry>
        </mxCell>
        <mxCell id="KppniZACtA5Ze27jZTz4-10" value="강의" style="shape=rhombus;perimeter=rhombusPerimeter;whiteSpace=wrap;html=1;align=center;fillColor=#d5e8d4;strokeColor=#82b366;" parent="1" vertex="1">
          <mxGeometry x="195" y="2830" width="120" height="60" as="geometry" />
        </mxCell>
        <mxCell id="KppniZACtA5Ze27jZTz4-11" value="" style="endArrow=none;html=1;rounded=0;exitX=0.5;exitY=0;exitDx=0;exitDy=0;entryX=0.5;entryY=1;entryDx=0;entryDy=0;" parent="1" source="KppniZACtA5Ze27jZTz4-1" target="KppniZACtA5Ze27jZTz4-10" edge="1">
          <mxGeometry relative="1" as="geometry">
            <mxPoint x="254" y="2980" as="sourcePoint" />
            <mxPoint x="255" y="2900" as="targetPoint" />
          </mxGeometry>
        </mxCell>
        <mxCell id="KppniZACtA5Ze27jZTz4-12" value="1" style="resizable=0;html=1;whiteSpace=wrap;align=right;verticalAlign=bottom;" parent="KppniZACtA5Ze27jZTz4-11" connectable="0" vertex="1">
          <mxGeometry x="1" relative="1" as="geometry">
            <mxPoint x="14" y="16" as="offset" />
          </mxGeometry>
        </mxCell>
        <mxCell id="KppniZACtA5Ze27jZTz4-13" value="" style="endArrow=none;html=1;rounded=0;entryX=0.5;entryY=0;entryDx=0;entryDy=0;" parent="1" target="KppniZACtA5Ze27jZTz4-10" edge="1">
          <mxGeometry relative="1" as="geometry">
            <mxPoint x="255" y="2750" as="sourcePoint" />
            <mxPoint x="254.5" y="2818" as="targetPoint" />
          </mxGeometry>
        </mxCell>
        <mxCell id="KppniZACtA5Ze27jZTz4-14" value="N" style="resizable=0;html=1;whiteSpace=wrap;align=right;verticalAlign=bottom;" parent="KppniZACtA5Ze27jZTz4-13" connectable="0" vertex="1">
          <mxGeometry x="1" relative="1" as="geometry">
            <mxPoint x="15" y="1" as="offset" />
          </mxGeometry>
        </mxCell>
        <mxCell id="KppniZACtA5Ze27jZTz4-15" value="강사" style="whiteSpace=wrap;html=1;align=center;fillColor=#f5f5f5;fontColor=#333333;strokeColor=#666666;" parent="1" vertex="1">
          <mxGeometry x="205" y="2710" width="100" height="40" as="geometry" />
        </mxCell>
        <mxCell id="KppniZACtA5Ze27jZTz4-16" value="전공" style="whiteSpace=wrap;html=1;align=center;fillColor=#f5f5f5;fontColor=#333333;strokeColor=#666666;" parent="1" vertex="1">
          <mxGeometry x="705" y="2720" width="100" height="40" as="geometry" />
        </mxCell>
        <mxCell id="KppniZACtA5Ze27jZTz4-17" value="소속" style="shape=rhombus;perimeter=rhombusPerimeter;whiteSpace=wrap;html=1;align=center;fillColor=#d5e8d4;strokeColor=#82b366;" parent="1" vertex="1">
          <mxGeometry x="695" y="2830" width="120" height="60" as="geometry" />
        </mxCell>
        <mxCell id="KppniZACtA5Ze27jZTz4-18" value="" style="endArrow=none;html=1;rounded=0;" parent="1" edge="1">
          <mxGeometry relative="1" as="geometry">
            <mxPoint x="755" y="2980" as="sourcePoint" />
            <mxPoint x="754.5" y="2890" as="targetPoint" />
          </mxGeometry>
        </mxCell>
        <mxCell id="KppniZACtA5Ze27jZTz4-19" value="N" style="resizable=0;html=1;whiteSpace=wrap;align=right;verticalAlign=bottom;" parent="KppniZACtA5Ze27jZTz4-18" connectable="0" vertex="1">
          <mxGeometry x="1" relative="1" as="geometry">
            <mxPoint x="16" y="18" as="offset" />
          </mxGeometry>
        </mxCell>
        <mxCell id="KppniZACtA5Ze27jZTz4-20" value="" style="endArrow=none;html=1;rounded=0;" parent="1" edge="1">
          <mxGeometry relative="1" as="geometry">
            <mxPoint x="754" y="2762" as="sourcePoint" />
            <mxPoint x="754.5" y="2830" as="targetPoint" />
          </mxGeometry>
        </mxCell>
        <mxCell id="KppniZACtA5Ze27jZTz4-21" value="1" style="resizable=0;html=1;whiteSpace=wrap;align=right;verticalAlign=bottom;" parent="KppniZACtA5Ze27jZTz4-20" connectable="0" vertex="1">
          <mxGeometry x="1" relative="1" as="geometry">
            <mxPoint x="12" y="1" as="offset" />
          </mxGeometry>
        </mxCell>
        <mxCell id="KppniZACtA5Ze27jZTz4-22" value="강사코드" style="ellipse;whiteSpace=wrap;html=1;align=center;fontStyle=4;" parent="1" vertex="1">
          <mxGeometry x="85" y="2680" width="100" height="40" as="geometry" />
        </mxCell>
        <mxCell id="KppniZACtA5Ze27jZTz4-23" value="강사이름" style="ellipse;whiteSpace=wrap;html=1;align=center;" parent="1" vertex="1">
          <mxGeometry x="85" y="2750" width="100" height="40" as="geometry" />
        </mxCell>
        <mxCell id="KppniZACtA5Ze27jZTz4-24" value="" style="endArrow=none;html=1;rounded=0;entryX=0;entryY=0.5;entryDx=0;entryDy=0;" parent="1" target="KppniZACtA5Ze27jZTz4-15" edge="1">
          <mxGeometry relative="1" as="geometry">
            <mxPoint x="185" y="2770" as="sourcePoint" />
            <mxPoint x="345" y="2770" as="targetPoint" />
          </mxGeometry>
        </mxCell>
        <mxCell id="KppniZACtA5Ze27jZTz4-25" value="" style="endArrow=none;html=1;rounded=0;entryX=0;entryY=0.5;entryDx=0;entryDy=0;exitX=1;exitY=0.5;exitDx=0;exitDy=0;" parent="1" source="KppniZACtA5Ze27jZTz4-22" target="KppniZACtA5Ze27jZTz4-15" edge="1">
          <mxGeometry relative="1" as="geometry">
            <mxPoint x="185" y="2720" as="sourcePoint" />
            <mxPoint x="345" y="2720" as="targetPoint" />
          </mxGeometry>
        </mxCell>
        <mxCell id="KppniZACtA5Ze27jZTz4-26" value="과목코드" style="ellipse;whiteSpace=wrap;html=1;align=center;fontStyle=4;" parent="1" vertex="1">
          <mxGeometry x="85" y="2900" width="100" height="40" as="geometry" />
        </mxCell>
        <mxCell id="KppniZACtA5Ze27jZTz4-27" value="과목명" style="ellipse;whiteSpace=wrap;html=1;align=center;" parent="1" vertex="1">
          <mxGeometry x="85" y="2950" width="100" height="40" as="geometry" />
        </mxCell>
        <mxCell id="KppniZACtA5Ze27jZTz4-28" value="종료일" style="ellipse;whiteSpace=wrap;html=1;align=center;" parent="1" vertex="1">
          <mxGeometry x="85" y="3050" width="100" height="40" as="geometry" />
        </mxCell>
        <mxCell id="KppniZACtA5Ze27jZTz4-29" value="시작일" style="ellipse;whiteSpace=wrap;html=1;align=center;" parent="1" vertex="1">
          <mxGeometry x="85" y="3000" width="100" height="40" as="geometry" />
        </mxCell>
        <mxCell id="KppniZACtA5Ze27jZTz4-30" value="" style="endArrow=none;html=1;rounded=0;exitX=1;exitY=0.5;exitDx=0;exitDy=0;" parent="1" source="KppniZACtA5Ze27jZTz4-26" edge="1">
          <mxGeometry relative="1" as="geometry">
            <mxPoint x="185" y="3000" as="sourcePoint" />
            <mxPoint x="205" y="3000" as="targetPoint" />
          </mxGeometry>
        </mxCell>
        <mxCell id="KppniZACtA5Ze27jZTz4-31" value="" style="endArrow=none;html=1;rounded=0;entryX=0;entryY=0.5;entryDx=0;entryDy=0;exitX=1;exitY=0.5;exitDx=0;exitDy=0;" parent="1" source="KppniZACtA5Ze27jZTz4-27" target="KppniZACtA5Ze27jZTz4-1" edge="1">
          <mxGeometry relative="1" as="geometry">
            <mxPoint x="185" y="3060" as="sourcePoint" />
            <mxPoint x="345" y="3060" as="targetPoint" />
            <Array as="points" />
          </mxGeometry>
        </mxCell>
        <mxCell id="KppniZACtA5Ze27jZTz4-32" value="" style="endArrow=none;html=1;rounded=0;exitX=1;exitY=0.5;exitDx=0;exitDy=0;" parent="1" source="KppniZACtA5Ze27jZTz4-29" edge="1">
          <mxGeometry relative="1" as="geometry">
            <mxPoint x="185" y="3114.75" as="sourcePoint" />
            <mxPoint x="205" y="3000" as="targetPoint" />
          </mxGeometry>
        </mxCell>
        <mxCell id="KppniZACtA5Ze27jZTz4-33" value="" style="endArrow=none;html=1;rounded=0;entryX=0;entryY=0.5;entryDx=0;entryDy=0;exitX=1;exitY=0.5;exitDx=0;exitDy=0;" parent="1" source="KppniZACtA5Ze27jZTz4-28" target="KppniZACtA5Ze27jZTz4-1" edge="1">
          <mxGeometry relative="1" as="geometry">
            <mxPoint x="195" y="3150" as="sourcePoint" />
            <mxPoint x="355" y="3150" as="targetPoint" />
          </mxGeometry>
        </mxCell>
        <mxCell id="KppniZACtA5Ze27jZTz4-34" value="전공 명" style="ellipse;whiteSpace=wrap;html=1;align=center;" parent="1" vertex="1">
          <mxGeometry x="835" y="2750" width="100" height="40" as="geometry" />
        </mxCell>
        <mxCell id="KppniZACtA5Ze27jZTz4-35" value="회원아이디" style="ellipse;whiteSpace=wrap;html=1;align=center;fontStyle=4;" parent="1" vertex="1">
          <mxGeometry x="835" y="2840" width="100" height="40" as="geometry" />
        </mxCell>
        <mxCell id="KppniZACtA5Ze27jZTz4-36" value="전공코드" style="ellipse;whiteSpace=wrap;html=1;align=center;fontStyle=4;" parent="1" vertex="1">
          <mxGeometry x="835" y="2680" width="100" height="40" as="geometry" />
        </mxCell>
        <mxCell id="KppniZACtA5Ze27jZTz4-37" value="" style="endArrow=none;html=1;rounded=0;entryX=0;entryY=0.5;entryDx=0;entryDy=0;" parent="1" target="KppniZACtA5Ze27jZTz4-36" edge="1">
          <mxGeometry relative="1" as="geometry">
            <mxPoint x="805" y="2739.5" as="sourcePoint" />
            <mxPoint x="965" y="2739.5" as="targetPoint" />
          </mxGeometry>
        </mxCell>
        <mxCell id="KppniZACtA5Ze27jZTz4-38" value="" style="endArrow=none;html=1;rounded=0;entryX=0;entryY=0.5;entryDx=0;entryDy=0;" parent="1" target="KppniZACtA5Ze27jZTz4-34" edge="1">
          <mxGeometry relative="1" as="geometry">
            <mxPoint x="805" y="2739.5" as="sourcePoint" />
            <mxPoint x="965" y="2739.5" as="targetPoint" />
          </mxGeometry>
        </mxCell>
        <mxCell id="KppniZACtA5Ze27jZTz4-39" value="VLF" style="ellipse;whiteSpace=wrap;html=1;align=center;" parent="1" vertex="1">
          <mxGeometry x="1121" y="3467.5" width="100" height="40" as="geometry" />
        </mxCell>
        <mxCell id="KppniZACtA5Ze27jZTz4-40" value="LF" style="ellipse;whiteSpace=wrap;html=1;align=center;" parent="1" vertex="1">
          <mxGeometry x="1121" y="3513.5" width="100" height="40" as="geometry" />
        </mxCell>
        <mxCell id="KppniZACtA5Ze27jZTz4-41" value="" style="endArrow=none;html=1;rounded=0;entryX=0;entryY=0.5;entryDx=0;entryDy=0;" parent="1" target="KppniZACtA5Ze27jZTz4-35" edge="1">
          <mxGeometry relative="1" as="geometry">
            <mxPoint x="805" y="3000" as="sourcePoint" />
            <mxPoint x="965" y="3000" as="targetPoint" />
          </mxGeometry>
        </mxCell>
        <mxCell id="KppniZACtA5Ze27jZTz4-42" value="" style="endArrow=none;html=1;rounded=0;entryX=0;entryY=0.5;entryDx=0;entryDy=0;exitX=1;exitY=0.5;exitDx=0;exitDy=0;" parent="1" source="KppniZACtA5Ze27jZTz4-75" target="KppniZACtA5Ze27jZTz4-40" edge="1">
          <mxGeometry relative="1" as="geometry">
            <mxPoint x="1061" y="3705.5" as="sourcePoint" />
            <mxPoint x="1091" y="3705.5" as="targetPoint" />
          </mxGeometry>
        </mxCell>
        <mxCell id="KppniZACtA5Ze27jZTz4-43" value="" style="endArrow=none;html=1;rounded=0;entryX=0;entryY=0.5;entryDx=0;entryDy=0;exitX=1;exitY=0.5;exitDx=0;exitDy=0;" parent="1" source="KppniZACtA5Ze27jZTz4-75" target="KppniZACtA5Ze27jZTz4-39" edge="1">
          <mxGeometry relative="1" as="geometry">
            <mxPoint x="1061" y="3704.5" as="sourcePoint" />
            <mxPoint x="1221" y="3704.5" as="targetPoint" />
          </mxGeometry>
        </mxCell>
        <mxCell id="KppniZACtA5Ze27jZTz4-44" value="HF" style="ellipse;whiteSpace=wrap;html=1;align=center;" parent="1" vertex="1">
          <mxGeometry x="1121" y="3560.5" width="100" height="40" as="geometry" />
        </mxCell>
        <mxCell id="KppniZACtA5Ze27jZTz4-46" value="" style="endArrow=none;html=1;rounded=0;entryX=0;entryY=0.5;entryDx=0;entryDy=0;exitX=1;exitY=0.5;exitDx=0;exitDy=0;" parent="1" source="KppniZACtA5Ze27jZTz4-75" target="KppniZACtA5Ze27jZTz4-44" edge="1">
          <mxGeometry relative="1" as="geometry">
            <mxPoint x="1061" y="3705.5" as="sourcePoint" />
            <mxPoint x="1101" y="3702.5" as="targetPoint" />
          </mxGeometry>
        </mxCell>
        <mxCell id="KppniZACtA5Ze27jZTz4-48" value="몸무게" style="ellipse;whiteSpace=wrap;html=1;align=center;" parent="1" vertex="1">
          <mxGeometry x="266" y="3493" width="100" height="40" as="geometry" />
        </mxCell>
        <mxCell id="KppniZACtA5Ze27jZTz4-50" value="" style="endArrow=none;html=1;rounded=0;entryX=1;entryY=0.5;entryDx=0;entryDy=0;exitX=0;exitY=0.5;exitDx=0;exitDy=0;" parent="1" source="KppniZACtA5Ze27jZTz4-56" target="KppniZACtA5Ze27jZTz4-73" edge="1">
          <mxGeometry relative="1" as="geometry">
            <mxPoint x="811" y="3178.5" as="sourcePoint" />
            <mxPoint x="405" y="3449" as="targetPoint" />
          </mxGeometry>
        </mxCell>
        <mxCell id="KppniZACtA5Ze27jZTz4-51" value="" style="endArrow=none;html=1;rounded=0;entryX=1;entryY=0.5;entryDx=0;entryDy=0;exitX=0;exitY=0.5;exitDx=0;exitDy=0;" parent="1" source="KppniZACtA5Ze27jZTz4-56" target="KppniZACtA5Ze27jZTz4-48" edge="1">
          <mxGeometry relative="1" as="geometry">
            <mxPoint x="811" y="3178.5" as="sourcePoint" />
            <mxPoint x="971" y="3178.5" as="targetPoint" />
          </mxGeometry>
        </mxCell>
        <mxCell id="KppniZACtA5Ze27jZTz4-52" value="기기 시리얼 번호" style="ellipse;whiteSpace=wrap;html=1;align=center;" parent="1" vertex="1">
          <mxGeometry x="266" y="3640" width="100" height="40" as="geometry" />
        </mxCell>
        <mxCell id="KppniZACtA5Ze27jZTz4-54" value="" style="endArrow=none;html=1;rounded=0;exitX=0;exitY=0.5;exitDx=0;exitDy=0;entryX=1;entryY=0.5;entryDx=0;entryDy=0;" parent="1" source="KppniZACtA5Ze27jZTz4-56" target="KppniZACtA5Ze27jZTz4-72" edge="1">
          <mxGeometry relative="1" as="geometry">
            <mxPoint x="805" y="3298.5" as="sourcePoint" />
            <mxPoint x="410" y="3529" as="targetPoint" />
          </mxGeometry>
        </mxCell>
        <mxCell id="KppniZACtA5Ze27jZTz4-55" value="" style="endArrow=none;html=1;rounded=0;entryX=1;entryY=0.5;entryDx=0;entryDy=0;exitX=0;exitY=0.5;exitDx=0;exitDy=0;" parent="1" source="KppniZACtA5Ze27jZTz4-56" target="KppniZACtA5Ze27jZTz4-52" edge="1">
          <mxGeometry relative="1" as="geometry">
            <mxPoint x="805" y="3298.5" as="sourcePoint" />
            <mxPoint x="965" y="3298.5" as="targetPoint" />
          </mxGeometry>
        </mxCell>
        <mxCell id="KppniZACtA5Ze27jZTz4-56" value="사용자" style="whiteSpace=wrap;html=1;align=center;fillColor=#f5f5f5;fontColor=#333333;strokeColor=#666666;" parent="1" vertex="1">
          <mxGeometry x="501" y="3401" width="100" height="40" as="geometry" />
        </mxCell>
        <mxCell id="KppniZACtA5Ze27jZTz4-61" value="회원아이디" style="ellipse;whiteSpace=wrap;html=1;align=center;fontStyle=4;" parent="1" vertex="1">
          <mxGeometry x="266" y="3217" width="100" height="40" as="geometry" />
        </mxCell>
        <mxCell id="KppniZACtA5Ze27jZTz4-62" value="비밀번호" style="ellipse;whiteSpace=wrap;html=1;align=center;" parent="1" vertex="1">
          <mxGeometry x="266" y="3263" width="100" height="40" as="geometry" />
        </mxCell>
        <mxCell id="KppniZACtA5Ze27jZTz4-63" value="이름" style="ellipse;whiteSpace=wrap;html=1;align=center;" parent="1" vertex="1">
          <mxGeometry x="266" y="3309" width="100" height="40" as="geometry" />
        </mxCell>
        <mxCell id="KppniZACtA5Ze27jZTz4-64" value="" style="endArrow=none;html=1;rounded=0;entryX=1;entryY=0.5;entryDx=0;entryDy=0;exitX=0;exitY=0.5;exitDx=0;exitDy=0;" parent="1" source="KppniZACtA5Ze27jZTz4-56" target="KppniZACtA5Ze27jZTz4-61" edge="1">
          <mxGeometry relative="1" as="geometry">
            <mxPoint x="591" y="3379" as="sourcePoint" />
            <mxPoint x="751" y="3379" as="targetPoint" />
          </mxGeometry>
        </mxCell>
        <mxCell id="KppniZACtA5Ze27jZTz4-65" value="" style="endArrow=none;html=1;rounded=0;entryX=1;entryY=0.5;entryDx=0;entryDy=0;exitX=0;exitY=0.5;exitDx=0;exitDy=0;" parent="1" source="KppniZACtA5Ze27jZTz4-56" target="KppniZACtA5Ze27jZTz4-63" edge="1">
          <mxGeometry relative="1" as="geometry">
            <mxPoint x="490" y="3379" as="sourcePoint" />
            <mxPoint x="621" y="3379" as="targetPoint" />
          </mxGeometry>
        </mxCell>
        <mxCell id="KppniZACtA5Ze27jZTz4-66" value="" style="endArrow=none;html=1;rounded=0;entryX=1;entryY=0.5;entryDx=0;entryDy=0;exitX=0;exitY=0.5;exitDx=0;exitDy=0;" parent="1" source="KppniZACtA5Ze27jZTz4-56" target="KppniZACtA5Ze27jZTz4-62" edge="1">
          <mxGeometry relative="1" as="geometry">
            <mxPoint x="490" y="3379" as="sourcePoint" />
            <mxPoint x="751" y="3378" as="targetPoint" />
          </mxGeometry>
        </mxCell>
        <mxCell id="KppniZACtA5Ze27jZTz4-67" value="나이" style="ellipse;whiteSpace=wrap;html=1;align=center;" parent="1" vertex="1">
          <mxGeometry x="266" y="3355" width="100" height="40" as="geometry" />
        </mxCell>
        <mxCell id="KppniZACtA5Ze27jZTz4-68" value="성별" style="ellipse;whiteSpace=wrap;html=1;align=center;" parent="1" vertex="1">
          <mxGeometry x="266" y="3401" width="100" height="40" as="geometry" />
        </mxCell>
        <mxCell id="KppniZACtA5Ze27jZTz4-69" value="" style="endArrow=none;html=1;rounded=0;entryX=1;entryY=0.5;entryDx=0;entryDy=0;exitX=0;exitY=0.5;exitDx=0;exitDy=0;" parent="1" source="KppniZACtA5Ze27jZTz4-56" target="KppniZACtA5Ze27jZTz4-67" edge="1">
          <mxGeometry relative="1" as="geometry">
            <mxPoint x="490" y="3379" as="sourcePoint" />
            <mxPoint x="631" y="3376" as="targetPoint" />
          </mxGeometry>
        </mxCell>
        <mxCell id="KppniZACtA5Ze27jZTz4-70" value="" style="endArrow=none;html=1;rounded=0;entryX=1;entryY=0.5;entryDx=0;entryDy=0;exitX=0;exitY=0.5;exitDx=0;exitDy=0;" parent="1" source="KppniZACtA5Ze27jZTz4-56" target="KppniZACtA5Ze27jZTz4-68" edge="1">
          <mxGeometry relative="1" as="geometry">
            <mxPoint x="490" y="3379" as="sourcePoint" />
            <mxPoint x="620" y="3451" as="targetPoint" />
          </mxGeometry>
        </mxCell>
        <mxCell id="KppniZACtA5Ze27jZTz4-72" value="당뇨유형" style="ellipse;whiteSpace=wrap;html=1;align=center;" parent="1" vertex="1">
          <mxGeometry x="266" y="3539" width="100" height="40" as="geometry" />
        </mxCell>
        <mxCell id="KppniZACtA5Ze27jZTz4-73" value="키" style="ellipse;whiteSpace=wrap;html=1;align=center;" parent="1" vertex="1">
          <mxGeometry x="266" y="3447" width="100" height="40" as="geometry" />
        </mxCell>
        <mxCell id="KppniZACtA5Ze27jZTz4-75" value="생체 데이터" style="whiteSpace=wrap;html=1;align=center;fillColor=#f5f5f5;fontColor=#333333;strokeColor=#666666;" parent="1" vertex="1">
          <mxGeometry x="886" y="3401" width="100" height="40" as="geometry" />
        </mxCell>
        <mxCell id="KppniZACtA5Ze27jZTz4-80" value="기기 시리얼 번호" style="ellipse;whiteSpace=wrap;html=1;align=center;fontStyle=4;" parent="1" vertex="1">
          <mxGeometry x="1121" y="3056" width="100" height="40" as="geometry" />
        </mxCell>
        <mxCell id="KppniZACtA5Ze27jZTz4-81" value="측정시간" style="ellipse;whiteSpace=wrap;html=1;align=center;" parent="1" vertex="1">
          <mxGeometry x="1121" y="3101" width="100" height="40" as="geometry" />
        </mxCell>
        <mxCell id="KppniZACtA5Ze27jZTz4-82" value="식사여부" style="ellipse;whiteSpace=wrap;html=1;align=center;" parent="1" vertex="1">
          <mxGeometry x="1121" y="3146" width="100" height="40" as="geometry" />
        </mxCell>
        <mxCell id="KppniZACtA5Ze27jZTz4-83" value="" style="endArrow=none;html=1;rounded=0;entryX=0;entryY=0.5;entryDx=0;entryDy=0;exitX=1;exitY=0.5;exitDx=0;exitDy=0;" parent="1" source="KppniZACtA5Ze27jZTz4-75" target="KppniZACtA5Ze27jZTz4-80" edge="1">
          <mxGeometry relative="1" as="geometry">
            <mxPoint x="1061" y="3381" as="sourcePoint" />
            <mxPoint x="1221" y="3381" as="targetPoint" />
          </mxGeometry>
        </mxCell>
        <mxCell id="KppniZACtA5Ze27jZTz4-84" value="" style="endArrow=none;html=1;rounded=0;entryX=0;entryY=0.5;entryDx=0;entryDy=0;exitX=1;exitY=0.5;exitDx=0;exitDy=0;" parent="1" source="KppniZACtA5Ze27jZTz4-75" target="KppniZACtA5Ze27jZTz4-82" edge="1">
          <mxGeometry relative="1" as="geometry">
            <mxPoint x="1061" y="3381" as="sourcePoint" />
            <mxPoint x="1091" y="3381" as="targetPoint" />
          </mxGeometry>
        </mxCell>
        <mxCell id="KppniZACtA5Ze27jZTz4-85" value="" style="endArrow=none;html=1;rounded=0;entryX=0;entryY=0.5;entryDx=0;entryDy=0;exitX=1;exitY=0.5;exitDx=0;exitDy=0;" parent="1" source="KppniZACtA5Ze27jZTz4-75" target="KppniZACtA5Ze27jZTz4-81" edge="1">
          <mxGeometry relative="1" as="geometry">
            <mxPoint x="1061" y="3380" as="sourcePoint" />
            <mxPoint x="1221" y="3380" as="targetPoint" />
          </mxGeometry>
        </mxCell>
        <mxCell id="KppniZACtA5Ze27jZTz4-86" value="식사" style="ellipse;whiteSpace=wrap;html=1;align=center;" parent="1" vertex="1">
          <mxGeometry x="1121" y="3192" width="100" height="40" as="geometry" />
        </mxCell>
        <mxCell id="KppniZACtA5Ze27jZTz4-87" value="HR" style="ellipse;whiteSpace=wrap;html=1;align=center;" parent="1" vertex="1">
          <mxGeometry x="1121" y="3238" width="100" height="40" as="geometry" />
        </mxCell>
        <mxCell id="KppniZACtA5Ze27jZTz4-88" value="" style="endArrow=none;html=1;rounded=0;entryX=0;entryY=0.5;entryDx=0;entryDy=0;exitX=1;exitY=0.5;exitDx=0;exitDy=0;" parent="1" source="KppniZACtA5Ze27jZTz4-75" target="KppniZACtA5Ze27jZTz4-86" edge="1">
          <mxGeometry relative="1" as="geometry">
            <mxPoint x="1071" y="3391" as="sourcePoint" />
            <mxPoint x="1101" y="3378" as="targetPoint" />
          </mxGeometry>
        </mxCell>
        <mxCell id="KppniZACtA5Ze27jZTz4-89" value="" style="endArrow=none;html=1;rounded=0;exitX=1;exitY=0.5;exitDx=0;exitDy=0;entryX=0;entryY=0.5;entryDx=0;entryDy=0;" parent="1" source="KppniZACtA5Ze27jZTz4-75" target="KppniZACtA5Ze27jZTz4-87" edge="1">
          <mxGeometry relative="1" as="geometry">
            <mxPoint x="1081" y="3401" as="sourcePoint" />
            <mxPoint x="1090" y="3453" as="targetPoint" />
          </mxGeometry>
        </mxCell>
        <mxCell id="KppniZACtA5Ze27jZTz4-90" value="HRV" style="ellipse;whiteSpace=wrap;html=1;align=center;" parent="1" vertex="1">
          <mxGeometry x="1121" y="3284.5" width="100" height="40" as="geometry" />
        </mxCell>
        <mxCell id="KppniZACtA5Ze27jZTz4-91" value="SDNN" style="ellipse;whiteSpace=wrap;html=1;align=center;" parent="1" vertex="1">
          <mxGeometry x="1121" y="3330.5" width="100" height="40" as="geometry" />
        </mxCell>
        <mxCell id="KppniZACtA5Ze27jZTz4-92" value="" style="endArrow=none;html=1;rounded=0;entryX=0;entryY=0.5;entryDx=0;entryDy=0;exitX=1;exitY=0.5;exitDx=0;exitDy=0;" parent="1" source="KppniZACtA5Ze27jZTz4-75" target="KppniZACtA5Ze27jZTz4-91" edge="1">
          <mxGeometry relative="1" as="geometry">
            <mxPoint x="1061" y="3542.5" as="sourcePoint" />
            <mxPoint x="1091" y="3542.5" as="targetPoint" />
          </mxGeometry>
        </mxCell>
        <mxCell id="KppniZACtA5Ze27jZTz4-93" value="" style="endArrow=none;html=1;rounded=0;entryX=0;entryY=0.5;entryDx=0;entryDy=0;exitX=1;exitY=0.5;exitDx=0;exitDy=0;" parent="1" source="KppniZACtA5Ze27jZTz4-75" target="KppniZACtA5Ze27jZTz4-90" edge="1">
          <mxGeometry relative="1" as="geometry">
            <mxPoint x="1061" y="3541.5" as="sourcePoint" />
            <mxPoint x="1221" y="3541.5" as="targetPoint" />
          </mxGeometry>
        </mxCell>
        <mxCell id="KppniZACtA5Ze27jZTz4-94" value="RMSSD" style="ellipse;whiteSpace=wrap;html=1;align=center;" parent="1" vertex="1">
          <mxGeometry x="1121" y="3375.5" width="100" height="40" as="geometry" />
        </mxCell>
        <mxCell id="KppniZACtA5Ze27jZTz4-95" value="PNN50" style="ellipse;whiteSpace=wrap;html=1;align=center;" parent="1" vertex="1">
          <mxGeometry x="1121" y="3421.5" width="100" height="40" as="geometry" />
        </mxCell>
        <mxCell id="KppniZACtA5Ze27jZTz4-96" value="" style="endArrow=none;html=1;rounded=0;entryX=0;entryY=0.5;entryDx=0;entryDy=0;exitX=1;exitY=0.5;exitDx=0;exitDy=0;" parent="1" source="KppniZACtA5Ze27jZTz4-75" target="KppniZACtA5Ze27jZTz4-94" edge="1">
          <mxGeometry relative="1" as="geometry">
            <mxPoint x="1061" y="3542.5" as="sourcePoint" />
            <mxPoint x="1101" y="3539.5" as="targetPoint" />
          </mxGeometry>
        </mxCell>
        <mxCell id="KppniZACtA5Ze27jZTz4-97" value="" style="endArrow=none;html=1;rounded=0;exitX=1;exitY=0.5;exitDx=0;exitDy=0;entryX=0;entryY=0.5;entryDx=0;entryDy=0;" parent="1" source="KppniZACtA5Ze27jZTz4-75" target="KppniZACtA5Ze27jZTz4-95" edge="1">
          <mxGeometry relative="1" as="geometry">
            <mxPoint x="1061" y="3542.5" as="sourcePoint" />
            <mxPoint x="1090" y="3614.5" as="targetPoint" />
          </mxGeometry>
        </mxCell>
        <mxCell id="KppniZACtA5Ze27jZTz4-99" value="Frequency_Ratio" style="ellipse;whiteSpace=wrap;html=1;align=center;" parent="1" vertex="1">
          <mxGeometry x="1121" y="3607.5" width="100" height="40" as="geometry" />
        </mxCell>
        <mxCell id="KppniZACtA5Ze27jZTz4-100" value="" style="endArrow=none;html=1;rounded=0;entryX=0;entryY=0.5;entryDx=0;entryDy=0;exitX=1;exitY=0.5;exitDx=0;exitDy=0;" parent="1" source="KppniZACtA5Ze27jZTz4-75" target="KppniZACtA5Ze27jZTz4-99" edge="1">
          <mxGeometry relative="1" as="geometry">
            <mxPoint x="1000" y="3451" as="sourcePoint" />
            <mxPoint x="1091" y="3788.5" as="targetPoint" />
          </mxGeometry>
        </mxCell>
        <mxCell id="KppniZACtA5Ze27jZTz4-101" value="성별" style="ellipse;whiteSpace=wrap;html=1;align=center;" parent="1" vertex="1">
          <mxGeometry x="1121" y="3654.5" width="100" height="40" as="geometry" />
        </mxCell>
        <mxCell id="KppniZACtA5Ze27jZTz4-102" value="나이" style="ellipse;whiteSpace=wrap;html=1;align=center;" parent="1" vertex="1">
          <mxGeometry x="1121" y="3701.5" width="100" height="40" as="geometry" />
        </mxCell>
        <mxCell id="KppniZACtA5Ze27jZTz4-103" value="" style="endArrow=none;html=1;rounded=0;entryX=0;entryY=0.5;entryDx=0;entryDy=0;exitX=1;exitY=0.5;exitDx=0;exitDy=0;" parent="1" source="KppniZACtA5Ze27jZTz4-75" target="KppniZACtA5Ze27jZTz4-101" edge="1">
          <mxGeometry relative="1" as="geometry">
            <mxPoint x="1061" y="3788.5" as="sourcePoint" />
            <mxPoint x="1101" y="3785.5" as="targetPoint" />
          </mxGeometry>
        </mxCell>
        <mxCell id="KppniZACtA5Ze27jZTz4-104" value="" style="endArrow=none;html=1;rounded=0;exitX=1;exitY=0.5;exitDx=0;exitDy=0;entryX=0;entryY=0.5;entryDx=0;entryDy=0;" parent="1" source="KppniZACtA5Ze27jZTz4-75" target="KppniZACtA5Ze27jZTz4-102" edge="1">
          <mxGeometry relative="1" as="geometry">
            <mxPoint x="1000" y="3451" as="sourcePoint" />
            <mxPoint x="1090" y="3860.5" as="targetPoint" />
          </mxGeometry>
        </mxCell>
        <mxCell id="KppniZACtA5Ze27jZTz4-105" value="혈당" style="ellipse;whiteSpace=wrap;html=1;align=center;" parent="1" vertex="1">
          <mxGeometry x="1121" y="3747.5" width="100" height="40" as="geometry" />
        </mxCell>
        <mxCell id="KppniZACtA5Ze27jZTz4-106" value="" style="endArrow=none;html=1;rounded=0;exitX=1;exitY=0.5;exitDx=0;exitDy=0;entryX=0;entryY=0.5;entryDx=0;entryDy=0;" parent="1" source="KppniZACtA5Ze27jZTz4-75" target="KppniZACtA5Ze27jZTz4-105" edge="1">
          <mxGeometry relative="1" as="geometry">
            <mxPoint x="1062" y="3822.5" as="sourcePoint" />
            <mxPoint x="1060" y="3901" as="targetPoint" />
          </mxGeometry>
        </mxCell>
        <mxCell id="KppniZACtA5Ze27jZTz4-110" value="" style="endArrow=none;html=1;rounded=0;entryX=0;entryY=0.5;entryDx=0;entryDy=0;" parent="1" source="KppniZACtA5Ze27jZTz4-114" target="KppniZACtA5Ze27jZTz4-75" edge="1">
          <mxGeometry relative="1" as="geometry">
            <mxPoint x="655" y="3420.5" as="sourcePoint" />
            <mxPoint x="850" y="3421" as="targetPoint" />
          </mxGeometry>
        </mxCell>
        <mxCell id="KppniZACtA5Ze27jZTz4-111" value="1" style="resizable=0;html=1;whiteSpace=wrap;align=right;verticalAlign=bottom;" parent="KppniZACtA5Ze27jZTz4-110" connectable="0" vertex="1">
          <mxGeometry x="1" relative="1" as="geometry">
            <mxPoint x="-73" y="1" as="offset" />
          </mxGeometry>
        </mxCell>
        <mxCell id="KppniZACtA5Ze27jZTz4-112" value="" style="endArrow=none;html=1;rounded=0;" parent="1" source="KppniZACtA5Ze27jZTz4-56" target="KppniZACtA5Ze27jZTz4-114" edge="1">
          <mxGeometry relative="1" as="geometry">
            <mxPoint x="655" y="3420.5" as="sourcePoint" />
            <mxPoint x="815" y="3420.5" as="targetPoint" />
          </mxGeometry>
        </mxCell>
        <mxCell id="KppniZACtA5Ze27jZTz4-113" value="1" style="resizable=0;html=1;whiteSpace=wrap;align=left;verticalAlign=bottom;" parent="KppniZACtA5Ze27jZTz4-112" connectable="0" vertex="1">
          <mxGeometry x="-1" relative="1" as="geometry">
            <mxPoint x="63" y="1" as="offset" />
          </mxGeometry>
        </mxCell>
        <mxCell id="KppniZACtA5Ze27jZTz4-114" value="데이터 측정" style="shape=rhombus;perimeter=rhombusPerimeter;whiteSpace=wrap;html=1;align=center;fillColor=#d5e8d4;strokeColor=#82b366;" parent="1" vertex="1">
          <mxGeometry x="673.5" y="3391" width="135" height="60" as="geometry" />
        </mxCell>
        <mxCell id="KppniZACtA5Ze27jZTz4-115" value="보호자" style="whiteSpace=wrap;html=1;align=center;fillColor=#f5f5f5;fontColor=#333333;strokeColor=#666666;" parent="1" vertex="1">
          <mxGeometry x="501" y="3788" width="100" height="40" as="geometry" />
        </mxCell>
        <mxCell id="KppniZACtA5Ze27jZTz4-118" value="회원아이디" style="ellipse;whiteSpace=wrap;html=1;align=center;fontStyle=4;" parent="1" vertex="1">
          <mxGeometry x="340" y="3708" width="100" height="40" as="geometry" />
        </mxCell>
        <mxCell id="KppniZACtA5Ze27jZTz4-119" value="보호자와 관계" style="ellipse;whiteSpace=wrap;html=1;align=center;" parent="1" vertex="1">
          <mxGeometry x="340" y="3758" width="100" height="40" as="geometry" />
        </mxCell>
        <mxCell id="KppniZACtA5Ze27jZTz4-120" value="보호자 전화번호" style="ellipse;whiteSpace=wrap;html=1;align=center;" parent="1" vertex="1">
          <mxGeometry x="340" y="3858" width="100" height="40" as="geometry" />
        </mxCell>
        <mxCell id="KppniZACtA5Ze27jZTz4-121" value="보호자 이름" style="ellipse;whiteSpace=wrap;html=1;align=center;" parent="1" vertex="1">
          <mxGeometry x="340" y="3808" width="100" height="40" as="geometry" />
        </mxCell>
        <mxCell id="KppniZACtA5Ze27jZTz4-122" value="" style="endArrow=none;html=1;rounded=0;exitX=1;exitY=0.5;exitDx=0;exitDy=0;" parent="1" source="KppniZACtA5Ze27jZTz4-118" edge="1">
          <mxGeometry relative="1" as="geometry">
            <mxPoint x="481" y="3808" as="sourcePoint" />
            <mxPoint x="501" y="3808" as="targetPoint" />
          </mxGeometry>
        </mxCell>
        <mxCell id="KppniZACtA5Ze27jZTz4-123" value="" style="endArrow=none;html=1;rounded=0;entryX=0;entryY=0.5;entryDx=0;entryDy=0;exitX=1;exitY=0.5;exitDx=0;exitDy=0;" parent="1" source="KppniZACtA5Ze27jZTz4-119" target="KppniZACtA5Ze27jZTz4-115" edge="1">
          <mxGeometry relative="1" as="geometry">
            <mxPoint x="481" y="3868" as="sourcePoint" />
            <mxPoint x="641" y="3868" as="targetPoint" />
            <Array as="points" />
          </mxGeometry>
        </mxCell>
        <mxCell id="KppniZACtA5Ze27jZTz4-124" value="" style="endArrow=none;html=1;rounded=0;exitX=1;exitY=0.5;exitDx=0;exitDy=0;" parent="1" source="KppniZACtA5Ze27jZTz4-121" edge="1">
          <mxGeometry relative="1" as="geometry">
            <mxPoint x="481" y="3922.75" as="sourcePoint" />
            <mxPoint x="501" y="3808" as="targetPoint" />
          </mxGeometry>
        </mxCell>
        <mxCell id="KppniZACtA5Ze27jZTz4-125" value="" style="endArrow=none;html=1;rounded=0;entryX=0;entryY=0.5;entryDx=0;entryDy=0;exitX=1;exitY=0.5;exitDx=0;exitDy=0;" parent="1" source="KppniZACtA5Ze27jZTz4-120" target="KppniZACtA5Ze27jZTz4-115" edge="1">
          <mxGeometry relative="1" as="geometry">
            <mxPoint x="491" y="3958" as="sourcePoint" />
            <mxPoint x="651" y="3958" as="targetPoint" />
          </mxGeometry>
        </mxCell>
        <mxCell id="KppniZACtA5Ze27jZTz4-134" value="보호자 등록" style="shape=rhombus;perimeter=rhombusPerimeter;whiteSpace=wrap;html=1;align=center;fillColor=#d5e8d4;strokeColor=#82b366;" parent="1" vertex="1">
          <mxGeometry x="491" y="3562" width="120" height="60" as="geometry" />
        </mxCell>
        <mxCell id="KppniZACtA5Ze27jZTz4-135" value="" style="endArrow=none;html=1;rounded=0;exitX=0.5;exitY=0;exitDx=0;exitDy=0;entryX=0.5;entryY=1;entryDx=0;entryDy=0;" parent="1" source="KppniZACtA5Ze27jZTz4-115" target="KppniZACtA5Ze27jZTz4-134" edge="1">
          <mxGeometry relative="1" as="geometry">
            <mxPoint x="551" y="3701" as="sourcePoint" />
            <mxPoint x="551" y="3621" as="targetPoint" />
          </mxGeometry>
        </mxCell>
        <mxCell id="KppniZACtA5Ze27jZTz4-136" value="1" style="resizable=0;html=1;whiteSpace=wrap;align=right;verticalAlign=bottom;" parent="KppniZACtA5Ze27jZTz4-135" connectable="0" vertex="1">
          <mxGeometry x="1" relative="1" as="geometry">
            <mxPoint x="14" y="16" as="offset" />
          </mxGeometry>
        </mxCell>
        <mxCell id="KppniZACtA5Ze27jZTz4-137" value="" style="endArrow=none;html=1;rounded=0;entryX=0.5;entryY=0;entryDx=0;entryDy=0;exitX=0.5;exitY=1;exitDx=0;exitDy=0;" parent="1" source="KppniZACtA5Ze27jZTz4-56" target="KppniZACtA5Ze27jZTz4-134" edge="1">
          <mxGeometry relative="1" as="geometry">
            <mxPoint x="551" y="3471" as="sourcePoint" />
            <mxPoint x="550.5" y="3539" as="targetPoint" />
          </mxGeometry>
        </mxCell>
        <mxCell id="KppniZACtA5Ze27jZTz4-138" value="1" style="resizable=0;html=1;whiteSpace=wrap;align=right;verticalAlign=bottom;" parent="KppniZACtA5Ze27jZTz4-137" connectable="0" vertex="1">
          <mxGeometry x="1" relative="1" as="geometry">
            <mxPoint x="15" y="1" as="offset" />
          </mxGeometry>
        </mxCell>
        <mxCell id="KppniZACtA5Ze27jZTz4-139" value="소셜로그인타입" style="ellipse;whiteSpace=wrap;html=1;align=center;" parent="1" vertex="1">
          <mxGeometry x="266" y="3590" width="100" height="40" as="geometry" />
        </mxCell>
        <mxCell id="KppniZACtA5Ze27jZTz4-142" value="" style="endArrow=none;html=1;rounded=0;entryX=1;entryY=0.5;entryDx=0;entryDy=0;exitX=0;exitY=0.5;exitDx=0;exitDy=0;" parent="1" source="KppniZACtA5Ze27jZTz4-56" target="KppniZACtA5Ze27jZTz4-139" edge="1">
          <mxGeometry relative="1" as="geometry">
            <mxPoint x="511" y="3431" as="sourcePoint" />
            <mxPoint x="376" y="3670" as="targetPoint" />
          </mxGeometry>
        </mxCell>
        <mxCell id="9y1bi-Uoe04GYYNvi3n7-3" value="" style="endArrow=none;html=1;rounded=0;entryX=0.5;entryY=1;entryDx=0;entryDy=0;" edge="1" parent="1" source="9y1bi-Uoe04GYYNvi3n7-9">
          <mxGeometry width="50" height="50" relative="1" as="geometry">
            <mxPoint x="824" y="5000" as="sourcePoint" />
            <mxPoint x="824" y="4960" as="targetPoint" />
          </mxGeometry>
        </mxCell>
        <mxCell id="9y1bi-Uoe04GYYNvi3n7-26" style="edgeStyle=orthogonalEdgeStyle;rounded=0;orthogonalLoop=1;jettySize=auto;html=1;exitX=1;exitY=0.5;exitDx=0;exitDy=0;entryX=0.5;entryY=0;entryDx=0;entryDy=0;" edge="1" parent="1" source="9y1bi-Uoe04GYYNvi3n7-4" target="9y1bi-Uoe04GYYNvi3n7-12">
          <mxGeometry relative="1" as="geometry" />
        </mxCell>
        <mxCell id="9y1bi-Uoe04GYYNvi3n7-61" style="edgeStyle=orthogonalEdgeStyle;rounded=0;orthogonalLoop=1;jettySize=auto;html=1;exitX=0;exitY=0.5;exitDx=0;exitDy=0;entryX=0.5;entryY=0;entryDx=0;entryDy=0;" edge="1" parent="1" source="9y1bi-Uoe04GYYNvi3n7-4" target="9y1bi-Uoe04GYYNvi3n7-11">
          <mxGeometry relative="1" as="geometry" />
        </mxCell>
        <mxCell id="9y1bi-Uoe04GYYNvi3n7-4" value="회원 유무" style="rhombus;whiteSpace=wrap;html=1;" vertex="1" parent="1">
          <mxGeometry x="745" y="5000" width="169.81" height="40" as="geometry" />
        </mxCell>
        <mxCell id="9y1bi-Uoe04GYYNvi3n7-24" style="edgeStyle=orthogonalEdgeStyle;rounded=0;orthogonalLoop=1;jettySize=auto;html=1;exitX=0.5;exitY=1;exitDx=0;exitDy=0;entryX=0.5;entryY=0;entryDx=0;entryDy=0;" edge="1" parent="1" source="9y1bi-Uoe04GYYNvi3n7-9" target="9y1bi-Uoe04GYYNvi3n7-4">
          <mxGeometry relative="1" as="geometry" />
        </mxCell>
        <mxCell id="9y1bi-Uoe04GYYNvi3n7-9" value="서비스 시작" style="rounded=1;whiteSpace=wrap;html=1;" vertex="1" parent="1">
          <mxGeometry x="770" y="4920" width="120" height="40" as="geometry" />
        </mxCell>
        <mxCell id="9y1bi-Uoe04GYYNvi3n7-19" style="edgeStyle=orthogonalEdgeStyle;rounded=0;orthogonalLoop=1;jettySize=auto;html=1;exitX=0.5;exitY=1;exitDx=0;exitDy=0;entryX=0.5;entryY=0;entryDx=0;entryDy=0;strokeColor=none;" edge="1" parent="1" source="9y1bi-Uoe04GYYNvi3n7-11" target="9y1bi-Uoe04GYYNvi3n7-15">
          <mxGeometry relative="1" as="geometry" />
        </mxCell>
        <mxCell id="9y1bi-Uoe04GYYNvi3n7-29" style="edgeStyle=orthogonalEdgeStyle;rounded=0;orthogonalLoop=1;jettySize=auto;html=1;exitX=0.5;exitY=1;exitDx=0;exitDy=0;entryX=0.5;entryY=0;entryDx=0;entryDy=0;" edge="1" parent="1" source="9y1bi-Uoe04GYYNvi3n7-11" target="9y1bi-Uoe04GYYNvi3n7-15">
          <mxGeometry relative="1" as="geometry" />
        </mxCell>
        <mxCell id="9y1bi-Uoe04GYYNvi3n7-11" value="회원 가입" style="rounded=0;whiteSpace=wrap;html=1;" vertex="1" parent="1">
          <mxGeometry x="555" y="5040" width="119" height="40" as="geometry" />
        </mxCell>
        <mxCell id="9y1bi-Uoe04GYYNvi3n7-45" style="edgeStyle=orthogonalEdgeStyle;rounded=0;orthogonalLoop=1;jettySize=auto;html=1;exitX=0.5;exitY=1;exitDx=0;exitDy=0;entryX=0.5;entryY=0;entryDx=0;entryDy=0;" edge="1" parent="1" source="9y1bi-Uoe04GYYNvi3n7-12" target="9y1bi-Uoe04GYYNvi3n7-44">
          <mxGeometry relative="1" as="geometry" />
        </mxCell>
        <mxCell id="9y1bi-Uoe04GYYNvi3n7-12" value="로그인" style="rounded=0;whiteSpace=wrap;html=1;" vertex="1" parent="1">
          <mxGeometry x="984" y="5171" width="119" height="40" as="geometry" />
        </mxCell>
        <mxCell id="9y1bi-Uoe04GYYNvi3n7-42" style="edgeStyle=orthogonalEdgeStyle;rounded=0;orthogonalLoop=1;jettySize=auto;html=1;exitX=0.5;exitY=1;exitDx=0;exitDy=0;" edge="1" parent="1" source="9y1bi-Uoe04GYYNvi3n7-15" target="9y1bi-Uoe04GYYNvi3n7-41">
          <mxGeometry relative="1" as="geometry" />
        </mxCell>
        <mxCell id="9y1bi-Uoe04GYYNvi3n7-15" value="회원정보 입력" style="rounded=0;whiteSpace=wrap;html=1;" vertex="1" parent="1">
          <mxGeometry x="555" y="5106" width="119" height="40" as="geometry" />
        </mxCell>
        <mxCell id="9y1bi-Uoe04GYYNvi3n7-17" value="NO" style="text;html=1;align=center;verticalAlign=middle;resizable=0;points=[];autosize=1;strokeColor=none;fillColor=none;" vertex="1" parent="1">
          <mxGeometry x="599" y="4990" width="40" height="30" as="geometry" />
        </mxCell>
        <mxCell id="9y1bi-Uoe04GYYNvi3n7-18" value="YES" style="text;html=1;align=center;verticalAlign=middle;resizable=0;points=[];autosize=1;strokeColor=none;fillColor=none;" vertex="1" parent="1">
          <mxGeometry x="1018.5" y="4990" width="50" height="30" as="geometry" />
        </mxCell>
        <mxCell id="9y1bi-Uoe04GYYNvi3n7-30" value="회원정보" style="swimlane;fontStyle=0;childLayout=stackLayout;horizontal=1;startSize=30;horizontalStack=0;resizeParent=1;resizeParentMax=0;resizeLast=0;collapsible=1;marginBottom=0;whiteSpace=wrap;html=1;" vertex="1" parent="1">
          <mxGeometry x="382" y="5077" width="140" height="90" as="geometry" />
        </mxCell>
        <mxCell id="9y1bi-Uoe04GYYNvi3n7-31" value="아이다(이메일)" style="text;strokeColor=none;fillColor=none;align=left;verticalAlign=middle;spacingLeft=4;spacingRight=4;overflow=hidden;points=[[0,0.5],[1,0.5]];portConstraint=eastwest;rotatable=0;whiteSpace=wrap;html=1;" vertex="1" parent="9y1bi-Uoe04GYYNvi3n7-30">
          <mxGeometry y="30" width="140" height="30" as="geometry" />
        </mxCell>
        <mxCell id="9y1bi-Uoe04GYYNvi3n7-32" value="비밀번호" style="text;strokeColor=none;fillColor=none;align=left;verticalAlign=middle;spacingLeft=4;spacingRight=4;overflow=hidden;points=[[0,0.5],[1,0.5]];portConstraint=eastwest;rotatable=0;whiteSpace=wrap;html=1;" vertex="1" parent="9y1bi-Uoe04GYYNvi3n7-30">
          <mxGeometry y="60" width="140" height="30" as="geometry" />
        </mxCell>
        <mxCell id="9y1bi-Uoe04GYYNvi3n7-38" value="" style="shape=waypoint;sketch=0;fillStyle=solid;size=6;pointerEvents=1;points=[];fillColor=none;resizable=0;rotatable=0;perimeter=centerPerimeter;snapToPoint=1;" vertex="1" parent="1">
          <mxGeometry x="513" y="5116" width="20" height="20" as="geometry" />
        </mxCell>
        <mxCell id="9y1bi-Uoe04GYYNvi3n7-43" style="edgeStyle=orthogonalEdgeStyle;rounded=0;orthogonalLoop=1;jettySize=auto;html=1;exitX=1;exitY=0.5;exitDx=0;exitDy=0;entryX=0;entryY=0.5;entryDx=0;entryDy=0;" edge="1" parent="1" source="9y1bi-Uoe04GYYNvi3n7-41" target="9y1bi-Uoe04GYYNvi3n7-12">
          <mxGeometry relative="1" as="geometry">
            <mxPoint x="784" y="5170" as="targetPoint" />
          </mxGeometry>
        </mxCell>
        <mxCell id="9y1bi-Uoe04GYYNvi3n7-41" value="회원가입 버튼 클릭" style="rounded=0;whiteSpace=wrap;html=1;" vertex="1" parent="1">
          <mxGeometry x="555" y="5171" width="119" height="40" as="geometry" />
        </mxCell>
        <mxCell id="9y1bi-Uoe04GYYNvi3n7-46" style="edgeStyle=orthogonalEdgeStyle;rounded=0;orthogonalLoop=1;jettySize=auto;html=1;exitX=1;exitY=0.5;exitDx=0;exitDy=0;entryX=1;entryY=0.5;entryDx=0;entryDy=0;" edge="1" parent="1" source="9y1bi-Uoe04GYYNvi3n7-44" target="9y1bi-Uoe04GYYNvi3n7-12">
          <mxGeometry relative="1" as="geometry" />
        </mxCell>
        <mxCell id="9y1bi-Uoe04GYYNvi3n7-49" style="edgeStyle=orthogonalEdgeStyle;rounded=0;orthogonalLoop=1;jettySize=auto;html=1;exitX=0.5;exitY=1;exitDx=0;exitDy=0;" edge="1" parent="1" source="9y1bi-Uoe04GYYNvi3n7-44" target="9y1bi-Uoe04GYYNvi3n7-48">
          <mxGeometry relative="1" as="geometry" />
        </mxCell>
        <mxCell id="9y1bi-Uoe04GYYNvi3n7-44" value="아이디 / 비밀번호 입력" style="rhombus;whiteSpace=wrap;html=1;" vertex="1" parent="1">
          <mxGeometry x="955.81" y="5231" width="175.41" height="60" as="geometry" />
        </mxCell>
        <mxCell id="9y1bi-Uoe04GYYNvi3n7-47" value="NO" style="text;html=1;align=center;verticalAlign=middle;resizable=0;points=[];autosize=1;strokeColor=none;fillColor=none;" vertex="1" parent="1">
          <mxGeometry x="1154" y="5240" width="40" height="30" as="geometry" />
        </mxCell>
        <mxCell id="9y1bi-Uoe04GYYNvi3n7-53" style="edgeStyle=orthogonalEdgeStyle;rounded=0;orthogonalLoop=1;jettySize=auto;html=1;exitX=0.5;exitY=1;exitDx=0;exitDy=0;entryX=0.5;entryY=0;entryDx=0;entryDy=0;" edge="1" parent="1" source="9y1bi-Uoe04GYYNvi3n7-48" target="9y1bi-Uoe04GYYNvi3n7-55">
          <mxGeometry relative="1" as="geometry" />
        </mxCell>
        <mxCell id="9y1bi-Uoe04GYYNvi3n7-48" value="로그인 처리" style="rounded=0;whiteSpace=wrap;html=1;" vertex="1" parent="1">
          <mxGeometry x="984.01" y="5320" width="119" height="40" as="geometry" />
        </mxCell>
        <mxCell id="9y1bi-Uoe04GYYNvi3n7-50" value="YES" style="text;html=1;align=center;verticalAlign=middle;resizable=0;points=[];autosize=1;strokeColor=none;fillColor=none;" vertex="1" parent="1">
          <mxGeometry x="1044" y="5290" width="50" height="30" as="geometry" />
        </mxCell>
        <mxCell id="9y1bi-Uoe04GYYNvi3n7-124" style="edgeStyle=orthogonalEdgeStyle;rounded=0;orthogonalLoop=1;jettySize=auto;html=1;exitX=0.5;exitY=1;exitDx=0;exitDy=0;entryX=0.5;entryY=0;entryDx=0;entryDy=0;" edge="1" parent="1" source="9y1bi-Uoe04GYYNvi3n7-52" target="9y1bi-Uoe04GYYNvi3n7-106">
          <mxGeometry relative="1" as="geometry" />
        </mxCell>
        <mxCell id="9y1bi-Uoe04GYYNvi3n7-153" style="edgeStyle=orthogonalEdgeStyle;rounded=0;orthogonalLoop=1;jettySize=auto;html=1;exitX=1;exitY=0.5;exitDx=0;exitDy=0;entryX=0;entryY=0.5;entryDx=0;entryDy=0;" edge="1" parent="1" source="9y1bi-Uoe04GYYNvi3n7-52" target="9y1bi-Uoe04GYYNvi3n7-147">
          <mxGeometry relative="1" as="geometry" />
        </mxCell>
        <mxCell id="9y1bi-Uoe04GYYNvi3n7-154" style="edgeStyle=orthogonalEdgeStyle;rounded=0;orthogonalLoop=1;jettySize=auto;html=1;exitX=1;exitY=0.5;exitDx=0;exitDy=0;entryX=0;entryY=0.5;entryDx=0;entryDy=0;" edge="1" parent="1" source="9y1bi-Uoe04GYYNvi3n7-52" target="9y1bi-Uoe04GYYNvi3n7-149">
          <mxGeometry relative="1" as="geometry" />
        </mxCell>
        <mxCell id="9y1bi-Uoe04GYYNvi3n7-155" style="edgeStyle=orthogonalEdgeStyle;rounded=0;orthogonalLoop=1;jettySize=auto;html=1;exitX=1;exitY=0.5;exitDx=0;exitDy=0;entryX=0;entryY=0.5;entryDx=0;entryDy=0;" edge="1" parent="1" source="9y1bi-Uoe04GYYNvi3n7-52" target="9y1bi-Uoe04GYYNvi3n7-150">
          <mxGeometry relative="1" as="geometry" />
        </mxCell>
        <mxCell id="9y1bi-Uoe04GYYNvi3n7-157" style="edgeStyle=orthogonalEdgeStyle;rounded=0;orthogonalLoop=1;jettySize=auto;html=1;exitX=1;exitY=0.5;exitDx=0;exitDy=0;entryX=0;entryY=0.5;entryDx=0;entryDy=0;" edge="1" parent="1" source="9y1bi-Uoe04GYYNvi3n7-52" target="9y1bi-Uoe04GYYNvi3n7-151">
          <mxGeometry relative="1" as="geometry" />
        </mxCell>
        <mxCell id="9y1bi-Uoe04GYYNvi3n7-158" style="edgeStyle=orthogonalEdgeStyle;rounded=0;orthogonalLoop=1;jettySize=auto;html=1;exitX=1;exitY=0.5;exitDx=0;exitDy=0;entryX=0;entryY=0.5;entryDx=0;entryDy=0;" edge="1" parent="1" source="9y1bi-Uoe04GYYNvi3n7-52" target="9y1bi-Uoe04GYYNvi3n7-152">
          <mxGeometry relative="1" as="geometry" />
        </mxCell>
        <mxCell id="9y1bi-Uoe04GYYNvi3n7-165" style="edgeStyle=orthogonalEdgeStyle;rounded=0;orthogonalLoop=1;jettySize=auto;html=1;exitX=0.5;exitY=0;exitDx=0;exitDy=0;entryX=0;entryY=0.5;entryDx=0;entryDy=0;" edge="1" parent="1" source="9y1bi-Uoe04GYYNvi3n7-52" target="9y1bi-Uoe04GYYNvi3n7-166">
          <mxGeometry relative="1" as="geometry">
            <mxPoint x="1298.8333333333335" y="4979.999999999999" as="targetPoint" />
          </mxGeometry>
        </mxCell>
        <mxCell id="9y1bi-Uoe04GYYNvi3n7-52" value="메인 페이지" style="rounded=0;whiteSpace=wrap;html=1;" vertex="1" parent="1">
          <mxGeometry x="1214" y="5470" width="170" height="80" as="geometry" />
        </mxCell>
        <mxCell id="9y1bi-Uoe04GYYNvi3n7-70" style="edgeStyle=orthogonalEdgeStyle;rounded=0;orthogonalLoop=1;jettySize=auto;html=1;exitX=0;exitY=0.5;exitDx=0;exitDy=0;entryX=1;entryY=0.5;entryDx=0;entryDy=0;" edge="1" parent="1" source="9y1bi-Uoe04GYYNvi3n7-55" target="9y1bi-Uoe04GYYNvi3n7-69">
          <mxGeometry relative="1" as="geometry" />
        </mxCell>
        <mxCell id="9y1bi-Uoe04GYYNvi3n7-101" style="edgeStyle=orthogonalEdgeStyle;rounded=0;orthogonalLoop=1;jettySize=auto;html=1;exitX=1;exitY=0.5;exitDx=0;exitDy=0;entryX=0;entryY=0.5;entryDx=0;entryDy=0;" edge="1" parent="1" source="9y1bi-Uoe04GYYNvi3n7-55" target="9y1bi-Uoe04GYYNvi3n7-52">
          <mxGeometry relative="1" as="geometry">
            <mxPoint x="1204" y="5510" as="targetPoint" />
          </mxGeometry>
        </mxCell>
        <mxCell id="9y1bi-Uoe04GYYNvi3n7-55" value="필수 회원정보 기입" style="rhombus;whiteSpace=wrap;html=1;" vertex="1" parent="1">
          <mxGeometry x="955.81" y="5480" width="175.41" height="60" as="geometry" />
        </mxCell>
        <mxCell id="9y1bi-Uoe04GYYNvi3n7-67" value="" style="endArrow=none;html=1;rounded=0;entryX=0;entryY=0.5;entryDx=0;entryDy=0;" edge="1" parent="1" target="9y1bi-Uoe04GYYNvi3n7-15">
          <mxGeometry width="50" height="50" relative="1" as="geometry">
            <mxPoint x="523" y="5126" as="sourcePoint" />
            <mxPoint x="555" y="5080" as="targetPoint" />
          </mxGeometry>
        </mxCell>
        <mxCell id="9y1bi-Uoe04GYYNvi3n7-73" style="edgeStyle=orthogonalEdgeStyle;rounded=0;orthogonalLoop=1;jettySize=auto;html=1;exitX=0.5;exitY=1;exitDx=0;exitDy=0;entryX=0.5;entryY=0;entryDx=0;entryDy=0;" edge="1" parent="1" source="9y1bi-Uoe04GYYNvi3n7-69" target="9y1bi-Uoe04GYYNvi3n7-72">
          <mxGeometry relative="1" as="geometry" />
        </mxCell>
        <mxCell id="9y1bi-Uoe04GYYNvi3n7-69" value="마이 페이지" style="rounded=0;whiteSpace=wrap;html=1;" vertex="1" parent="1">
          <mxGeometry x="755" y="5490" width="119" height="40" as="geometry" />
        </mxCell>
        <mxCell id="9y1bi-Uoe04GYYNvi3n7-71" value="NO" style="text;html=1;align=center;verticalAlign=middle;resizable=0;points=[];autosize=1;strokeColor=none;fillColor=none;" vertex="1" parent="1">
          <mxGeometry x="896" y="5473" width="40" height="30" as="geometry" />
        </mxCell>
        <mxCell id="9y1bi-Uoe04GYYNvi3n7-99" style="edgeStyle=orthogonalEdgeStyle;rounded=0;orthogonalLoop=1;jettySize=auto;html=1;exitX=0.5;exitY=1;exitDx=0;exitDy=0;entryX=0.5;entryY=0;entryDx=0;entryDy=0;" edge="1" parent="1" source="9y1bi-Uoe04GYYNvi3n7-72" target="9y1bi-Uoe04GYYNvi3n7-98">
          <mxGeometry relative="1" as="geometry" />
        </mxCell>
        <mxCell id="9y1bi-Uoe04GYYNvi3n7-72" value="내 정보 수정" style="rounded=0;whiteSpace=wrap;html=1;" vertex="1" parent="1">
          <mxGeometry x="755" y="5560" width="119" height="40" as="geometry" />
        </mxCell>
        <mxCell id="9y1bi-Uoe04GYYNvi3n7-77" value="" style="shape=waypoint;sketch=0;fillStyle=solid;size=6;pointerEvents=1;points=[];fillColor=none;resizable=0;rotatable=0;perimeter=centerPerimeter;snapToPoint=1;" vertex="1" parent="1">
          <mxGeometry x="705" y="5570" width="20" height="20" as="geometry" />
        </mxCell>
        <mxCell id="9y1bi-Uoe04GYYNvi3n7-78" value="" style="endArrow=none;html=1;rounded=0;entryX=0;entryY=0.5;entryDx=0;entryDy=0;" edge="1" parent="1" source="9y1bi-Uoe04GYYNvi3n7-77" target="9y1bi-Uoe04GYYNvi3n7-72">
          <mxGeometry width="50" height="50" relative="1" as="geometry">
            <mxPoint x="864" y="5340" as="sourcePoint" />
            <mxPoint x="914" y="5290" as="targetPoint" />
          </mxGeometry>
        </mxCell>
        <mxCell id="9y1bi-Uoe04GYYNvi3n7-90" value="내 정보" style="swimlane;fontStyle=0;childLayout=stackLayout;horizontal=1;startSize=30;horizontalStack=0;resizeParent=1;resizeParentMax=0;resizeLast=0;collapsible=1;marginBottom=0;whiteSpace=wrap;html=1;" vertex="1" parent="1">
          <mxGeometry x="574" y="5520" width="140" height="210" as="geometry" />
        </mxCell>
        <mxCell id="9y1bi-Uoe04GYYNvi3n7-91" value="생년월일" style="text;strokeColor=none;fillColor=none;align=left;verticalAlign=middle;spacingLeft=4;spacingRight=4;overflow=hidden;points=[[0,0.5],[1,0.5]];portConstraint=eastwest;rotatable=0;whiteSpace=wrap;html=1;" vertex="1" parent="9y1bi-Uoe04GYYNvi3n7-90">
          <mxGeometry y="30" width="140" height="30" as="geometry" />
        </mxCell>
        <mxCell id="9y1bi-Uoe04GYYNvi3n7-92" value="성별" style="text;strokeColor=none;fillColor=none;align=left;verticalAlign=middle;spacingLeft=4;spacingRight=4;overflow=hidden;points=[[0,0.5],[1,0.5]];portConstraint=eastwest;rotatable=0;whiteSpace=wrap;html=1;" vertex="1" parent="9y1bi-Uoe04GYYNvi3n7-90">
          <mxGeometry y="60" width="140" height="30" as="geometry" />
        </mxCell>
        <mxCell id="9y1bi-Uoe04GYYNvi3n7-93" value="키" style="text;strokeColor=none;fillColor=none;align=left;verticalAlign=middle;spacingLeft=4;spacingRight=4;overflow=hidden;points=[[0,0.5],[1,0.5]];portConstraint=eastwest;rotatable=0;whiteSpace=wrap;html=1;" vertex="1" parent="9y1bi-Uoe04GYYNvi3n7-90">
          <mxGeometry y="90" width="140" height="30" as="geometry" />
        </mxCell>
        <mxCell id="9y1bi-Uoe04GYYNvi3n7-94" value="몸무게" style="text;strokeColor=none;fillColor=none;align=left;verticalAlign=middle;spacingLeft=4;spacingRight=4;overflow=hidden;points=[[0,0.5],[1,0.5]];portConstraint=eastwest;rotatable=0;whiteSpace=wrap;html=1;" vertex="1" parent="9y1bi-Uoe04GYYNvi3n7-90">
          <mxGeometry y="120" width="140" height="30" as="geometry" />
        </mxCell>
        <mxCell id="9y1bi-Uoe04GYYNvi3n7-95" value="당뇨유형" style="text;strokeColor=none;fillColor=none;align=left;verticalAlign=middle;spacingLeft=4;spacingRight=4;overflow=hidden;points=[[0,0.5],[1,0.5]];portConstraint=eastwest;rotatable=0;whiteSpace=wrap;html=1;" vertex="1" parent="9y1bi-Uoe04GYYNvi3n7-90">
          <mxGeometry y="150" width="140" height="30" as="geometry" />
        </mxCell>
        <mxCell id="9y1bi-Uoe04GYYNvi3n7-96" value="보호자 전호번호(선택)" style="text;strokeColor=none;fillColor=none;align=left;verticalAlign=middle;spacingLeft=4;spacingRight=4;overflow=hidden;points=[[0,0.5],[1,0.5]];portConstraint=eastwest;rotatable=0;whiteSpace=wrap;html=1;" vertex="1" parent="9y1bi-Uoe04GYYNvi3n7-90">
          <mxGeometry y="180" width="140" height="30" as="geometry" />
        </mxCell>
        <mxCell id="9y1bi-Uoe04GYYNvi3n7-98" value="저장하기" style="rounded=0;whiteSpace=wrap;html=1;" vertex="1" parent="1">
          <mxGeometry x="755" y="5630" width="119" height="40" as="geometry" />
        </mxCell>
        <mxCell id="9y1bi-Uoe04GYYNvi3n7-102" value="YES" style="text;html=1;align=center;verticalAlign=middle;resizable=0;points=[];autosize=1;strokeColor=none;fillColor=none;" vertex="1" parent="1">
          <mxGeometry x="1145" y="5473" width="50" height="30" as="geometry" />
        </mxCell>
        <mxCell id="9y1bi-Uoe04GYYNvi3n7-115" style="edgeStyle=orthogonalEdgeStyle;rounded=0;orthogonalLoop=1;jettySize=auto;html=1;exitX=0.5;exitY=1;exitDx=0;exitDy=0;entryX=0.5;entryY=0;entryDx=0;entryDy=0;" edge="1" parent="1" source="9y1bi-Uoe04GYYNvi3n7-106" target="9y1bi-Uoe04GYYNvi3n7-112">
          <mxGeometry relative="1" as="geometry" />
        </mxCell>
        <mxCell id="9y1bi-Uoe04GYYNvi3n7-117" style="edgeStyle=orthogonalEdgeStyle;rounded=0;orthogonalLoop=1;jettySize=auto;html=1;exitX=0.5;exitY=1;exitDx=0;exitDy=0;entryX=0.5;entryY=0;entryDx=0;entryDy=0;" edge="1" parent="1" source="9y1bi-Uoe04GYYNvi3n7-106" target="9y1bi-Uoe04GYYNvi3n7-114">
          <mxGeometry relative="1" as="geometry" />
        </mxCell>
        <mxCell id="9y1bi-Uoe04GYYNvi3n7-146" style="edgeStyle=orthogonalEdgeStyle;rounded=0;orthogonalLoop=1;jettySize=auto;html=1;exitX=0.5;exitY=1;exitDx=0;exitDy=0;entryX=0.5;entryY=0;entryDx=0;entryDy=0;" edge="1" parent="1" source="9y1bi-Uoe04GYYNvi3n7-106" target="9y1bi-Uoe04GYYNvi3n7-113">
          <mxGeometry relative="1" as="geometry" />
        </mxCell>
        <mxCell id="9y1bi-Uoe04GYYNvi3n7-106" value="하단바&lt;br&gt;(패럴렐러그램)" style="rounded=0;whiteSpace=wrap;html=1;" vertex="1" parent="1">
          <mxGeometry x="1236.75" y="5620" width="124.5" height="60" as="geometry" />
        </mxCell>
        <mxCell id="9y1bi-Uoe04GYYNvi3n7-132" style="edgeStyle=orthogonalEdgeStyle;rounded=0;orthogonalLoop=1;jettySize=auto;html=1;exitX=0.5;exitY=1;exitDx=0;exitDy=0;entryX=1;entryY=0.5;entryDx=0;entryDy=0;" edge="1" parent="1" source="9y1bi-Uoe04GYYNvi3n7-112" target="9y1bi-Uoe04GYYNvi3n7-126">
          <mxGeometry relative="1" as="geometry" />
        </mxCell>
        <mxCell id="9y1bi-Uoe04GYYNvi3n7-133" style="edgeStyle=orthogonalEdgeStyle;rounded=0;orthogonalLoop=1;jettySize=auto;html=1;exitX=0.5;exitY=1;exitDx=0;exitDy=0;entryX=1;entryY=0.5;entryDx=0;entryDy=0;" edge="1" parent="1" source="9y1bi-Uoe04GYYNvi3n7-112" target="9y1bi-Uoe04GYYNvi3n7-127">
          <mxGeometry relative="1" as="geometry" />
        </mxCell>
        <mxCell id="9y1bi-Uoe04GYYNvi3n7-134" style="edgeStyle=orthogonalEdgeStyle;rounded=0;orthogonalLoop=1;jettySize=auto;html=1;exitX=0.5;exitY=1;exitDx=0;exitDy=0;entryX=1;entryY=0.5;entryDx=0;entryDy=0;" edge="1" parent="1" source="9y1bi-Uoe04GYYNvi3n7-112" target="9y1bi-Uoe04GYYNvi3n7-128">
          <mxGeometry relative="1" as="geometry" />
        </mxCell>
        <mxCell id="9y1bi-Uoe04GYYNvi3n7-136" style="edgeStyle=orthogonalEdgeStyle;rounded=0;orthogonalLoop=1;jettySize=auto;html=1;exitX=0.5;exitY=1;exitDx=0;exitDy=0;entryX=1;entryY=0.5;entryDx=0;entryDy=0;" edge="1" parent="1" source="9y1bi-Uoe04GYYNvi3n7-112" target="9y1bi-Uoe04GYYNvi3n7-129">
          <mxGeometry relative="1" as="geometry" />
        </mxCell>
        <mxCell id="9y1bi-Uoe04GYYNvi3n7-137" style="edgeStyle=orthogonalEdgeStyle;rounded=0;orthogonalLoop=1;jettySize=auto;html=1;exitX=0.5;exitY=1;exitDx=0;exitDy=0;entryX=1;entryY=0.5;entryDx=0;entryDy=0;" edge="1" parent="1" source="9y1bi-Uoe04GYYNvi3n7-112" target="9y1bi-Uoe04GYYNvi3n7-131">
          <mxGeometry relative="1" as="geometry" />
        </mxCell>
        <mxCell id="9y1bi-Uoe04GYYNvi3n7-112" value="마이페이지" style="rounded=0;whiteSpace=wrap;html=1;" vertex="1" parent="1">
          <mxGeometry x="803" y="5721" width="119" height="40" as="geometry" />
        </mxCell>
        <mxCell id="9y1bi-Uoe04GYYNvi3n7-142" style="edgeStyle=orthogonalEdgeStyle;rounded=0;orthogonalLoop=1;jettySize=auto;html=1;exitX=0.5;exitY=1;exitDx=0;exitDy=0;entryX=0.5;entryY=0;entryDx=0;entryDy=0;" edge="1" parent="1" source="9y1bi-Uoe04GYYNvi3n7-113" target="9y1bi-Uoe04GYYNvi3n7-141">
          <mxGeometry relative="1" as="geometry">
            <mxPoint x="1054.5" y="5801.000000000001" as="targetPoint" />
          </mxGeometry>
        </mxCell>
        <mxCell id="9y1bi-Uoe04GYYNvi3n7-143" style="edgeStyle=orthogonalEdgeStyle;rounded=0;orthogonalLoop=1;jettySize=auto;html=1;exitX=0.5;exitY=1;exitDx=0;exitDy=0;entryX=0.5;entryY=0;entryDx=0;entryDy=0;" edge="1" parent="1" source="9y1bi-Uoe04GYYNvi3n7-113" target="9y1bi-Uoe04GYYNvi3n7-139">
          <mxGeometry relative="1" as="geometry" />
        </mxCell>
        <mxCell id="9y1bi-Uoe04GYYNvi3n7-144" style="edgeStyle=orthogonalEdgeStyle;rounded=0;orthogonalLoop=1;jettySize=auto;html=1;exitX=0.5;exitY=1;exitDx=0;exitDy=0;entryX=0.5;entryY=0;entryDx=0;entryDy=0;" edge="1" parent="1" source="9y1bi-Uoe04GYYNvi3n7-113" target="9y1bi-Uoe04GYYNvi3n7-140">
          <mxGeometry relative="1" as="geometry">
            <mxPoint x="1214.5" y="5801" as="targetPoint" />
          </mxGeometry>
        </mxCell>
        <mxCell id="9y1bi-Uoe04GYYNvi3n7-113" value="메뉴페이지" style="rounded=0;whiteSpace=wrap;html=1;" vertex="1" parent="1">
          <mxGeometry x="1074.5" y="5721" width="119" height="40" as="geometry" />
        </mxCell>
        <mxCell id="9y1bi-Uoe04GYYNvi3n7-162" style="edgeStyle=orthogonalEdgeStyle;rounded=0;orthogonalLoop=1;jettySize=auto;html=1;exitX=0.5;exitY=1;exitDx=0;exitDy=0;entryX=0;entryY=0.5;entryDx=0;entryDy=0;" edge="1" parent="1" source="9y1bi-Uoe04GYYNvi3n7-114" target="9y1bi-Uoe04GYYNvi3n7-159">
          <mxGeometry relative="1" as="geometry" />
        </mxCell>
        <mxCell id="9y1bi-Uoe04GYYNvi3n7-163" style="edgeStyle=orthogonalEdgeStyle;rounded=0;orthogonalLoop=1;jettySize=auto;html=1;exitX=0.5;exitY=1;exitDx=0;exitDy=0;entryX=0;entryY=0.5;entryDx=0;entryDy=0;" edge="1" parent="1" source="9y1bi-Uoe04GYYNvi3n7-114" target="9y1bi-Uoe04GYYNvi3n7-160">
          <mxGeometry relative="1" as="geometry" />
        </mxCell>
        <mxCell id="9y1bi-Uoe04GYYNvi3n7-164" style="edgeStyle=orthogonalEdgeStyle;rounded=0;orthogonalLoop=1;jettySize=auto;html=1;exitX=0.5;exitY=1;exitDx=0;exitDy=0;entryX=0;entryY=0.5;entryDx=0;entryDy=0;" edge="1" parent="1" source="9y1bi-Uoe04GYYNvi3n7-114" target="9y1bi-Uoe04GYYNvi3n7-161">
          <mxGeometry relative="1" as="geometry" />
        </mxCell>
        <mxCell id="9y1bi-Uoe04GYYNvi3n7-114" value="생체 페이지" style="rounded=0;whiteSpace=wrap;html=1;" vertex="1" parent="1">
          <mxGeometry x="1404" y="5720" width="119" height="40" as="geometry" />
        </mxCell>
        <mxCell id="9y1bi-Uoe04GYYNvi3n7-122" style="edgeStyle=orthogonalEdgeStyle;rounded=0;orthogonalLoop=1;jettySize=auto;html=1;exitX=1;exitY=0.5;exitDx=0;exitDy=0;entryX=0.059;entryY=0.988;entryDx=0;entryDy=0;entryPerimeter=0;" edge="1" parent="1" source="9y1bi-Uoe04GYYNvi3n7-98" target="9y1bi-Uoe04GYYNvi3n7-52">
          <mxGeometry relative="1" as="geometry" />
        </mxCell>
        <mxCell id="9y1bi-Uoe04GYYNvi3n7-126" value="기기 연결" style="rounded=0;whiteSpace=wrap;html=1;" vertex="1" parent="1">
          <mxGeometry x="634" y="5781" width="119" height="40" as="geometry" />
        </mxCell>
        <mxCell id="9y1bi-Uoe04GYYNvi3n7-127" value="내 정보 수정" style="rounded=0;whiteSpace=wrap;html=1;" vertex="1" parent="1">
          <mxGeometry x="634" y="5851" width="119" height="40" as="geometry" />
        </mxCell>
        <mxCell id="9y1bi-Uoe04GYYNvi3n7-128" value="비밀번호 변경" style="rounded=0;whiteSpace=wrap;html=1;" vertex="1" parent="1">
          <mxGeometry x="634" y="5921" width="119" height="40" as="geometry" />
        </mxCell>
        <mxCell id="9y1bi-Uoe04GYYNvi3n7-129" value="회원탈퇴" style="rounded=0;whiteSpace=wrap;html=1;" vertex="1" parent="1">
          <mxGeometry x="634" y="5991" width="119" height="40" as="geometry" />
        </mxCell>
        <mxCell id="9y1bi-Uoe04GYYNvi3n7-131" value="로그아웃" style="rounded=0;whiteSpace=wrap;html=1;" vertex="1" parent="1">
          <mxGeometry x="634" y="6051" width="119" height="40" as="geometry" />
        </mxCell>
        <mxCell id="9y1bi-Uoe04GYYNvi3n7-139" value="식단 관리" style="rounded=0;whiteSpace=wrap;html=1;" vertex="1" parent="1">
          <mxGeometry x="1074.5" y="5801" width="119" height="40" as="geometry" />
        </mxCell>
        <mxCell id="9y1bi-Uoe04GYYNvi3n7-140" value="체중관리" style="rounded=0;whiteSpace=wrap;html=1;" vertex="1" parent="1">
          <mxGeometry x="1221" y="5801" width="119" height="40" as="geometry" />
        </mxCell>
        <mxCell id="9y1bi-Uoe04GYYNvi3n7-141" value="약물 작성" style="rounded=0;whiteSpace=wrap;html=1;" vertex="1" parent="1">
          <mxGeometry x="931" y="5801" width="119" height="40" as="geometry" />
        </mxCell>
        <mxCell id="9y1bi-Uoe04GYYNvi3n7-147" value="혈당 데이터 차트 표시" style="rounded=0;whiteSpace=wrap;html=1;" vertex="1" parent="1">
          <mxGeometry x="1440" y="5367" width="120" height="40" as="geometry" />
        </mxCell>
        <mxCell id="9y1bi-Uoe04GYYNvi3n7-148" style="edgeStyle=orthogonalEdgeStyle;rounded=0;orthogonalLoop=1;jettySize=auto;html=1;exitX=0.75;exitY=0;exitDx=0;exitDy=0;entryX=0.686;entryY=1.04;entryDx=0;entryDy=0;entryPerimeter=0;" edge="1" parent="1" source="9y1bi-Uoe04GYYNvi3n7-106" target="9y1bi-Uoe04GYYNvi3n7-52">
          <mxGeometry relative="1" as="geometry" />
        </mxCell>
        <mxCell id="9y1bi-Uoe04GYYNvi3n7-149" value="날짜 선택" style="rounded=0;whiteSpace=wrap;html=1;" vertex="1" parent="1">
          <mxGeometry x="1440" y="5427" width="120" height="40" as="geometry" />
        </mxCell>
        <mxCell id="9y1bi-Uoe04GYYNvi3n7-179" style="edgeStyle=orthogonalEdgeStyle;rounded=0;orthogonalLoop=1;jettySize=auto;html=1;exitX=1;exitY=0.5;exitDx=0;exitDy=0;entryX=0.25;entryY=1;entryDx=0;entryDy=0;" edge="1" parent="1" source="9y1bi-Uoe04GYYNvi3n7-150" target="9y1bi-Uoe04GYYNvi3n7-177">
          <mxGeometry relative="1" as="geometry" />
        </mxCell>
        <mxCell id="9y1bi-Uoe04GYYNvi3n7-150" value="혈당 데이터 상세 조회" style="rounded=0;whiteSpace=wrap;html=1;" vertex="1" parent="1">
          <mxGeometry x="1440" y="5490" width="120" height="40" as="geometry" />
        </mxCell>
        <mxCell id="9y1bi-Uoe04GYYNvi3n7-151" value="약 복용 카드 표시" style="rounded=0;whiteSpace=wrap;html=1;" vertex="1" parent="1">
          <mxGeometry x="1440" y="5557" width="120" height="40" as="geometry" />
        </mxCell>
        <mxCell id="9y1bi-Uoe04GYYNvi3n7-152" value="당뇨 관련 광고" style="rounded=0;whiteSpace=wrap;html=1;" vertex="1" parent="1">
          <mxGeometry x="1440" y="5627" width="120" height="40" as="geometry" />
        </mxCell>
        <mxCell id="9y1bi-Uoe04GYYNvi3n7-159" value="혈당 차트 표시" style="rounded=0;whiteSpace=wrap;html=1;" vertex="1" parent="1">
          <mxGeometry x="1483" y="5781" width="120" height="40" as="geometry" />
        </mxCell>
        <mxCell id="9y1bi-Uoe04GYYNvi3n7-160" value="심박수 차트 표시" style="rounded=0;whiteSpace=wrap;html=1;" vertex="1" parent="1">
          <mxGeometry x="1483" y="5841" width="120" height="40" as="geometry" />
        </mxCell>
        <mxCell id="9y1bi-Uoe04GYYNvi3n7-161" value="스트레스 차트 표시" style="rounded=0;whiteSpace=wrap;html=1;" vertex="1" parent="1">
          <mxGeometry x="1483" y="5900" width="120" height="40" as="geometry" />
        </mxCell>
        <mxCell id="9y1bi-Uoe04GYYNvi3n7-172" style="edgeStyle=orthogonalEdgeStyle;rounded=0;orthogonalLoop=1;jettySize=auto;html=1;exitX=0.5;exitY=1;exitDx=0;exitDy=0;entryX=0.5;entryY=0;entryDx=0;entryDy=0;" edge="1" parent="1" source="9y1bi-Uoe04GYYNvi3n7-166" target="9y1bi-Uoe04GYYNvi3n7-167">
          <mxGeometry relative="1" as="geometry" />
        </mxCell>
        <mxCell id="9y1bi-Uoe04GYYNvi3n7-178" style="edgeStyle=orthogonalEdgeStyle;rounded=0;orthogonalLoop=1;jettySize=auto;html=1;exitX=0.5;exitY=1;exitDx=0;exitDy=0;entryX=0.5;entryY=0;entryDx=0;entryDy=0;" edge="1" parent="1" source="9y1bi-Uoe04GYYNvi3n7-166" target="9y1bi-Uoe04GYYNvi3n7-177">
          <mxGeometry relative="1" as="geometry" />
        </mxCell>
        <mxCell id="9y1bi-Uoe04GYYNvi3n7-166" value="측정 및 기타 페이지" style="rounded=0;whiteSpace=wrap;html=1;" vertex="1" parent="1">
          <mxGeometry x="1384" y="4970" width="120" height="40" as="geometry" />
        </mxCell>
        <mxCell id="9y1bi-Uoe04GYYNvi3n7-173" style="edgeStyle=orthogonalEdgeStyle;rounded=0;orthogonalLoop=1;jettySize=auto;html=1;exitX=0.5;exitY=1;exitDx=0;exitDy=0;" edge="1" parent="1" source="9y1bi-Uoe04GYYNvi3n7-167" target="9y1bi-Uoe04GYYNvi3n7-170">
          <mxGeometry relative="1" as="geometry" />
        </mxCell>
        <mxCell id="9y1bi-Uoe04GYYNvi3n7-167" value="PPG 데이터 측정" style="rounded=0;whiteSpace=wrap;html=1;" vertex="1" parent="1">
          <mxGeometry x="1456" y="5065" width="119" height="40" as="geometry" />
        </mxCell>
        <mxCell id="9y1bi-Uoe04GYYNvi3n7-175" style="edgeStyle=orthogonalEdgeStyle;rounded=0;orthogonalLoop=1;jettySize=auto;html=1;exitX=0.5;exitY=1;exitDx=0;exitDy=0;entryX=0.5;entryY=0;entryDx=0;entryDy=0;" edge="1" parent="1" source="9y1bi-Uoe04GYYNvi3n7-170" target="9y1bi-Uoe04GYYNvi3n7-171">
          <mxGeometry relative="1" as="geometry" />
        </mxCell>
        <mxCell id="9y1bi-Uoe04GYYNvi3n7-170" value="데이터 베이스 저장" style="rounded=0;whiteSpace=wrap;html=1;" vertex="1" parent="1">
          <mxGeometry x="1456" y="5130" width="119" height="40" as="geometry" />
        </mxCell>
        <mxCell id="9y1bi-Uoe04GYYNvi3n7-171" value="측정 종료" style="rounded=0;whiteSpace=wrap;html=1;" vertex="1" parent="1">
          <mxGeometry x="1456" y="5195" width="119" height="40" as="geometry" />
        </mxCell>
        <mxCell id="9y1bi-Uoe04GYYNvi3n7-177" value="혈당 데이터 조회" style="rounded=0;whiteSpace=wrap;html=1;" vertex="1" parent="1">
          <mxGeometry x="1321" y="5065" width="119" height="40" as="geometry" />
        </mxCell>
      </root>
    </mxGraphModel>
  </diagram>
</mxfile>
